%TF.GenerationSoftware,KiCad,Pcbnew,10.0.0*%
%TF.CreationDate,2026-05-12T11:33:02+05:30*%
%TF.ProjectId,MCU Datalogger,4d435520-4461-4746-916c-6f676765722e,1*%
%TF.SameCoordinates,Original*%
%TF.FileFunction,Copper,L2,Inr*%
%TF.FilePolarity,Positive*%
%FSLAX46Y46*%
G04 Gerber Fmt 4.6, Leading zero omitted, Abs format (unit mm)*
G04 Created by KiCad (PCBNEW 10.0.0) date 2026-05-12 11:33:02*
%MOMM*%
%LPD*%
G01*
G04 APERTURE LIST*
%TA.AperFunction,ComponentPad*%
%ADD10R,1.700000X1.700000*%
%TD*%
%TA.AperFunction,ComponentPad*%
%ADD11C,1.700000*%
%TD*%
%TA.AperFunction,ComponentPad*%
%ADD12R,1.350000X1.350000*%
%TD*%
%TA.AperFunction,ComponentPad*%
%ADD13C,1.350000*%
%TD*%
%TA.AperFunction,ViaPad*%
%ADD14C,0.600000*%
%TD*%
%TA.AperFunction,ViaPad*%
%ADD15C,0.900000*%
%TD*%
%TA.AperFunction,Conductor*%
%ADD16C,0.200000*%
%TD*%
G04 APERTURE END LIST*
D10*
%TO.N,/MISO*%
%TO.C,ICSP*%
X122210000Y-106490000D03*
D11*
%TO.N,/VCC*%
X119670000Y-106490000D03*
%TO.N,/SCK*%
X122210000Y-103950000D03*
%TO.N,/MOSI*%
X119670000Y-103950000D03*
%TO.N,/RESET*%
X122210000Y-101410000D03*
%TO.N,GND*%
X119670000Y-101410000D03*
%TD*%
D10*
%TO.N,/VCC*%
%TO.C,BT1*%
X89110000Y-86595000D03*
D11*
%TO.N,GND*%
X89110000Y-89135000D03*
%TD*%
D12*
%TO.N,GND*%
%TO.C,SerialUART*%
X128670000Y-96240000D03*
D13*
%TO.N,/VCC*%
X128670000Y-98240000D03*
%TO.N,/RX*%
X128670000Y-100240000D03*
%TO.N,/TX*%
X128670000Y-102240000D03*
%TD*%
D10*
%TO.N,/D2*%
%TO.C,GPIO*%
X94300000Y-106420000D03*
D11*
%TO.N,/D3*%
X96840000Y-106420000D03*
%TO.N,/D4*%
X99380000Y-106420000D03*
%TO.N,/D5*%
X101920000Y-106420000D03*
%TO.N,/D6*%
X104460000Y-106420000D03*
%TO.N,/D7*%
X107000000Y-106420000D03*
%TO.N,/D8*%
X109540000Y-106420000D03*
%TO.N,GND*%
X112080000Y-106420000D03*
%TO.N,/VCC*%
X114620000Y-106420000D03*
%TD*%
D12*
%TO.N,GND*%
%TO.C,I2C*%
X128690000Y-86170000D03*
D13*
%TO.N,/VCC*%
X128690000Y-88170000D03*
%TO.N,/SDA*%
X128690000Y-90170000D03*
%TO.N,/SCL*%
X128690000Y-92170000D03*
%TD*%
D14*
%TO.N,/SCL*%
X118440000Y-88410000D03*
%TO.N,/SCK*%
X111060000Y-91760000D03*
%TO.N,/SCL*%
X109580000Y-87270000D03*
X102440000Y-83800000D03*
D15*
%TO.N,GND*%
X117450000Y-81280000D03*
X120340000Y-97970000D03*
X120070000Y-84820000D03*
X98970000Y-82350000D03*
X95490000Y-91320000D03*
X103860000Y-89810000D03*
X112250000Y-88970000D03*
X92910000Y-99360000D03*
X98650000Y-89590000D03*
%TO.N,/VCC*%
X100280000Y-87480000D03*
X103780000Y-88510000D03*
X95600000Y-103320000D03*
X121180000Y-93230000D03*
X98930000Y-94500000D03*
X115630000Y-93000000D03*
X121240000Y-84060000D03*
X120830000Y-88480000D03*
D14*
%TO.N,/SDA*%
X126690000Y-90300000D03*
X115310000Y-85190000D03*
X99070000Y-84760000D03*
X120410000Y-94140000D03*
%TO.N,Net-(U3-PB6)*%
X111090000Y-96350000D03*
X107810000Y-91480000D03*
X122640000Y-98230000D03*
X111910000Y-101940000D03*
%TO.N,Net-(U3-PB7)*%
X112180000Y-81340000D03*
X103610000Y-93240000D03*
X106590000Y-101450000D03*
%TO.N,/SCK*%
X122910000Y-81190000D03*
%TO.N,/RX*%
X106890000Y-82600000D03*
X125705000Y-99455000D03*
%TO.N,/TX*%
X106160000Y-83310000D03*
X125375000Y-101205000D03*
%TD*%
%TO.N,/SDA*%
D16*
X126690000Y-90300000D02*
X122850000Y-94140000D01*
X122850000Y-94140000D02*
X120410000Y-94140000D01*
%TO.N,Net-(U3-PB6)*%
X111090000Y-94760000D02*
X107810000Y-91480000D01*
X111090000Y-96350000D02*
X111090000Y-94760000D01*
%TO.N,Net-(U3-PB7)*%
X102580000Y-85630000D02*
X102580000Y-92470000D01*
X112470000Y-81340000D02*
X112840000Y-81710000D01*
X103610000Y-99610000D02*
X103610000Y-93240000D01*
X112840000Y-82200000D02*
X112360000Y-82680000D01*
X112840000Y-81710000D02*
X112840000Y-82200000D01*
X107150000Y-81830000D02*
X106380000Y-81830000D01*
X112360000Y-82680000D02*
X108000000Y-82680000D01*
X112180000Y-81340000D02*
X112470000Y-81340000D01*
X106590000Y-101450000D02*
X105450000Y-101450000D01*
X105450000Y-101450000D02*
X103610000Y-99610000D01*
X103350000Y-93240000D02*
X103610000Y-93240000D01*
X108000000Y-82680000D02*
X107150000Y-81830000D01*
X106380000Y-81830000D02*
X102580000Y-85630000D01*
X102580000Y-92470000D02*
X103350000Y-93240000D01*
%TO.N,/RX*%
X106910000Y-82620000D02*
X106890000Y-82600000D01*
X116220000Y-94840000D02*
X106910000Y-85530000D01*
X125705000Y-99455000D02*
X125070000Y-98820000D01*
X106910000Y-85530000D02*
X106910000Y-82620000D01*
X125070000Y-98820000D02*
X125070000Y-95270000D01*
X125070000Y-95270000D02*
X124640000Y-94840000D01*
X124640000Y-94840000D02*
X116220000Y-94840000D01*
%TO.N,/TX*%
X125375000Y-101205000D02*
X124540000Y-100370000D01*
X124540000Y-100370000D02*
X124540000Y-95530000D01*
X115830000Y-95350000D02*
X105940000Y-85460000D01*
X124540000Y-95530000D02*
X124360000Y-95350000D01*
X124360000Y-95350000D02*
X115830000Y-95350000D01*
X105940000Y-83530000D02*
X106160000Y-83310000D01*
X105940000Y-85460000D02*
X105940000Y-83530000D01*
%TD*%
M02*
