%TF.GenerationSoftware,KiCad,Pcbnew,10.0.0*%
%TF.CreationDate,2026-05-12T11:33:02+05:30*%
%TF.ProjectId,MCU Datalogger,4d435520-4461-4746-916c-6f676765722e,1*%
%TF.SameCoordinates,Original*%
%TF.FileFunction,Paste,Top*%
%TF.FilePolarity,Positive*%
%FSLAX46Y46*%
G04 Gerber Fmt 4.6, Leading zero omitted, Abs format (unit mm)*
G04 Created by KiCad (PCBNEW 10.0.0) date 2026-05-12 11:33:02*
%MOMM*%
%LPD*%
G01*
G04 APERTURE LIST*
G04 Aperture macros list*
%AMRoundRect*
0 Rectangle with rounded corners*
0 $1 Rounding radius*
0 $2 $3 $4 $5 $6 $7 $8 $9 X,Y pos of 4 corners*
0 Add a 4 corners polygon primitive as box body*
4,1,4,$2,$3,$4,$5,$6,$7,$8,$9,$2,$3,0*
0 Add four circle primitives for the rounded corners*
1,1,$1+$1,$2,$3*
1,1,$1+$1,$4,$5*
1,1,$1+$1,$6,$7*
1,1,$1+$1,$8,$9*
0 Add four rect primitives between the rounded corners*
20,1,$1+$1,$2,$3,$4,$5,0*
20,1,$1+$1,$4,$5,$6,$7,0*
20,1,$1+$1,$6,$7,$8,$9,0*
20,1,$1+$1,$8,$9,$2,$3,0*%
G04 Aperture macros list end*
%ADD10RoundRect,0.250000X-0.262500X-0.450000X0.262500X-0.450000X0.262500X0.450000X-0.262500X0.450000X0*%
%ADD11RoundRect,0.250001X0.949999X-1.499999X0.949999X1.499999X-0.949999X1.499999X-0.949999X-1.499999X0*%
%ADD12RoundRect,0.243750X-0.243750X-0.456250X0.243750X-0.456250X0.243750X0.456250X-0.243750X0.456250X0*%
%ADD13RoundRect,0.250000X0.262500X0.450000X-0.262500X0.450000X-0.262500X-0.450000X0.262500X-0.450000X0*%
%ADD14RoundRect,0.250000X-0.250000X-0.475000X0.250000X-0.475000X0.250000X0.475000X-0.250000X0.475000X0*%
%ADD15RoundRect,0.250001X-1.499999X-0.949999X1.499999X-0.949999X1.499999X0.949999X-1.499999X0.949999X0*%
%ADD16RoundRect,0.162500X-0.650000X-0.162500X0.650000X-0.162500X0.650000X0.162500X-0.650000X0.162500X0*%
%ADD17RoundRect,0.243750X0.243750X0.456250X-0.243750X0.456250X-0.243750X-0.456250X0.243750X-0.456250X0*%
%ADD18RoundRect,0.073750X-0.911250X-0.221250X0.911250X-0.221250X0.911250X0.221250X-0.911250X0.221250X0*%
%ADD19RoundRect,0.068750X-0.666250X-0.206250X0.666250X-0.206250X0.666250X0.206250X-0.666250X0.206250X0*%
%ADD20RoundRect,0.068750X-0.206250X-0.666250X0.206250X-0.666250X0.206250X0.666250X-0.206250X0.666250X0*%
G04 APERTURE END LIST*
D10*
%TO.C,R5*%
X121957500Y-86170000D03*
X123782500Y-86170000D03*
%TD*%
D11*
%TO.C,Y1*%
X89580000Y-99640000D03*
X89580000Y-94440000D03*
%TD*%
D12*
%TO.C,D1*%
X118690000Y-82660000D03*
X120565000Y-82660000D03*
%TD*%
D13*
%TO.C,R3*%
X120062500Y-92390000D03*
X118237500Y-92390000D03*
%TD*%
D10*
%TO.C,R2*%
X98167500Y-101870000D03*
X99992500Y-101870000D03*
%TD*%
D14*
%TO.C,C2*%
X121350000Y-96610000D03*
X123250000Y-96610000D03*
%TD*%
D15*
%TO.C,Y2*%
X107300000Y-98910000D03*
X112500000Y-98910000D03*
%TD*%
D16*
%TO.C,U1*%
X93515000Y-80950000D03*
X93515000Y-82220000D03*
X93515000Y-83490000D03*
X93515000Y-84760000D03*
X100690000Y-84760000D03*
X100690000Y-83490000D03*
X100690000Y-82220000D03*
X100690000Y-80950000D03*
%TD*%
D14*
%TO.C,C5*%
X114220000Y-81290000D03*
X116120000Y-81290000D03*
%TD*%
D16*
%TO.C,U2*%
X93112500Y-88675000D03*
X93112500Y-89945000D03*
X93112500Y-91215000D03*
X93112500Y-92485000D03*
X100287500Y-92485000D03*
X100287500Y-91215000D03*
X100287500Y-89945000D03*
X100287500Y-88675000D03*
%TD*%
D17*
%TO.C,D2*%
X124715000Y-82670000D03*
X122840000Y-82670000D03*
%TD*%
D14*
%TO.C,C4*%
X122340000Y-92340000D03*
X124240000Y-92340000D03*
%TD*%
D13*
%TO.C,R4*%
X119962500Y-89810000D03*
X118137500Y-89810000D03*
%TD*%
D14*
%TO.C,C3*%
X108840000Y-81270000D03*
X110740000Y-81270000D03*
%TD*%
D10*
%TO.C,R7*%
X118257500Y-86170000D03*
X120082500Y-86170000D03*
%TD*%
D13*
%TO.C,R1*%
X96182500Y-101840000D03*
X94357500Y-101840000D03*
%TD*%
D14*
%TO.C,C1*%
X103800000Y-81320000D03*
X105700000Y-81320000D03*
%TD*%
D18*
%TO.C,U4*%
X94735000Y-95745000D03*
X94735000Y-97015000D03*
X94735000Y-98285000D03*
X94735000Y-99555000D03*
X99685000Y-99555000D03*
X99685000Y-98285000D03*
X99685000Y-97015000D03*
X99685000Y-95745000D03*
%TD*%
D10*
%TO.C,R6*%
X122297500Y-89830000D03*
X124122500Y-89830000D03*
%TD*%
D19*
%TO.C,U3*%
X105620000Y-86610000D03*
X105620000Y-87410000D03*
X105620000Y-88210000D03*
X105620000Y-89010000D03*
X105620000Y-89810000D03*
X105620000Y-90610000D03*
X105620000Y-91410000D03*
X105620000Y-92210000D03*
D20*
X106990000Y-93580000D03*
X107790000Y-93580000D03*
X108590000Y-93580000D03*
X109390000Y-93580000D03*
X110190000Y-93580000D03*
X110990000Y-93580000D03*
X111790000Y-93580000D03*
X112590000Y-93580000D03*
D19*
X113960000Y-92210000D03*
X113960000Y-91410000D03*
X113960000Y-90610000D03*
X113960000Y-89810000D03*
X113960000Y-89010000D03*
X113960000Y-88210000D03*
X113960000Y-87410000D03*
X113960000Y-86610000D03*
D20*
X112590000Y-85240000D03*
X111790000Y-85240000D03*
X110990000Y-85240000D03*
X110190000Y-85240000D03*
X109390000Y-85240000D03*
X108590000Y-85240000D03*
X107790000Y-85240000D03*
X106990000Y-85240000D03*
%TD*%
M02*
