M48
; DRILL file KiCad 10.0.0 date 2026-05-12T11:33:05
; FORMAT={-:-/ absolute / metric / decimal}
; #@! TF.CreationDate,2026-05-12T11:33:05+05:30
; #@! TF.GenerationSoftware,Kicad,Pcbnew,10.0.0
; #@! TF.FileFunction,Plated,1,4,PTH
FMAT,2
METRIC
; #@! TA.AperFunction,Plated,PTH,ViaDrill
T1C0.300
; #@! TA.AperFunction,Plated,PTH,ViaDrill
T2C0.400
; #@! TA.AperFunction,Plated,PTH,ComponentDrill
T3C0.800
; #@! TA.AperFunction,Plated,PTH,ComponentDrill
T4C1.000
%
G90
G05
T1
X99.07Y-84.76
X102.44Y-83.8
X103.61Y-93.24
X106.16Y-83.31
X106.59Y-101.45
X106.89Y-82.6
X107.81Y-91.48
X109.58Y-87.27
X111.06Y-91.76
X111.09Y-96.35
X111.91Y-101.94
X112.18Y-81.34
X115.31Y-85.19
X118.44Y-88.41
X120.41Y-94.14
X122.64Y-98.23
X122.91Y-81.19
X125.375Y-101.205
X125.705Y-99.455
X126.69Y-90.3
T2
X92.91Y-99.36
X95.49Y-91.32
X95.6Y-103.32
X98.65Y-89.59
X98.93Y-94.5
X98.97Y-82.35
X100.28Y-87.48
X103.78Y-88.51
X103.86Y-89.81
X112.25Y-88.97
X115.63Y-93.0
X117.45Y-81.28
X120.07Y-84.82
X120.34Y-97.97
X120.83Y-88.48
X121.18Y-93.23
X121.24Y-84.06
T3
X128.67Y-96.24
X128.67Y-98.24
X128.67Y-100.24
X128.67Y-102.24
X128.69Y-86.17
X128.69Y-88.17
X128.69Y-90.17
X128.69Y-92.17
T4
X89.11Y-86.595
X89.11Y-89.135
X94.3Y-106.42
X96.84Y-106.42
X99.38Y-106.42
X101.92Y-106.42
X104.46Y-106.42
X107.0Y-106.42
X109.54Y-106.42
X112.08Y-106.42
X114.62Y-106.42
X119.67Y-101.41
X119.67Y-103.95
X119.67Y-106.49
X122.21Y-101.41
X122.21Y-103.95
X122.21Y-106.49
M30
