%TF.GenerationSoftware,KiCad,Pcbnew,10.0.0*%
%TF.CreationDate,2026-05-12T11:33:02+05:30*%
%TF.ProjectId,MCU Datalogger,4d435520-4461-4746-916c-6f676765722e,1*%
%TF.SameCoordinates,Original*%
%TF.FileFunction,Legend,Top*%
%TF.FilePolarity,Positive*%
%FSLAX46Y46*%
G04 Gerber Fmt 4.6, Leading zero omitted, Abs format (unit mm)*
G04 Created by KiCad (PCBNEW 10.0.0) date 2026-05-12 11:33:02*
%MOMM*%
%LPD*%
G01*
G04 APERTURE LIST*
%ADD10C,0.100000*%
%ADD11C,0.120000*%
%ADD12C,0.127000*%
%ADD13C,0.200000*%
G04 APERTURE END LIST*
D10*
X113270000Y-101115000D02*
X117720000Y-101115000D01*
X117720000Y-104550000D01*
X113270000Y-104550000D01*
X113270000Y-101115000D01*
X114761905Y-101798693D02*
X114761905Y-101298693D01*
X115285714Y-101751074D02*
X115261905Y-101774884D01*
X115261905Y-101774884D02*
X115190476Y-101798693D01*
X115190476Y-101798693D02*
X115142857Y-101798693D01*
X115142857Y-101798693D02*
X115071429Y-101774884D01*
X115071429Y-101774884D02*
X115023810Y-101727264D01*
X115023810Y-101727264D02*
X115000000Y-101679645D01*
X115000000Y-101679645D02*
X114976191Y-101584407D01*
X114976191Y-101584407D02*
X114976191Y-101512979D01*
X114976191Y-101512979D02*
X115000000Y-101417741D01*
X115000000Y-101417741D02*
X115023810Y-101370122D01*
X115023810Y-101370122D02*
X115071429Y-101322503D01*
X115071429Y-101322503D02*
X115142857Y-101298693D01*
X115142857Y-101298693D02*
X115190476Y-101298693D01*
X115190476Y-101298693D02*
X115261905Y-101322503D01*
X115261905Y-101322503D02*
X115285714Y-101346312D01*
X115476191Y-101774884D02*
X115547619Y-101798693D01*
X115547619Y-101798693D02*
X115666667Y-101798693D01*
X115666667Y-101798693D02*
X115714286Y-101774884D01*
X115714286Y-101774884D02*
X115738095Y-101751074D01*
X115738095Y-101751074D02*
X115761905Y-101703455D01*
X115761905Y-101703455D02*
X115761905Y-101655836D01*
X115761905Y-101655836D02*
X115738095Y-101608217D01*
X115738095Y-101608217D02*
X115714286Y-101584407D01*
X115714286Y-101584407D02*
X115666667Y-101560598D01*
X115666667Y-101560598D02*
X115571429Y-101536788D01*
X115571429Y-101536788D02*
X115523810Y-101512979D01*
X115523810Y-101512979D02*
X115500000Y-101489169D01*
X115500000Y-101489169D02*
X115476191Y-101441550D01*
X115476191Y-101441550D02*
X115476191Y-101393931D01*
X115476191Y-101393931D02*
X115500000Y-101346312D01*
X115500000Y-101346312D02*
X115523810Y-101322503D01*
X115523810Y-101322503D02*
X115571429Y-101298693D01*
X115571429Y-101298693D02*
X115690476Y-101298693D01*
X115690476Y-101298693D02*
X115761905Y-101322503D01*
X115976190Y-101798693D02*
X115976190Y-101298693D01*
X115976190Y-101298693D02*
X116166666Y-101298693D01*
X116166666Y-101298693D02*
X116214285Y-101322503D01*
X116214285Y-101322503D02*
X116238095Y-101346312D01*
X116238095Y-101346312D02*
X116261904Y-101393931D01*
X116261904Y-101393931D02*
X116261904Y-101465360D01*
X116261904Y-101465360D02*
X116238095Y-101512979D01*
X116238095Y-101512979D02*
X116214285Y-101536788D01*
X116214285Y-101536788D02*
X116166666Y-101560598D01*
X116166666Y-101560598D02*
X115976190Y-101560598D01*
X113750000Y-102127475D02*
X113702381Y-102103665D01*
X113702381Y-102103665D02*
X113630952Y-102103665D01*
X113630952Y-102103665D02*
X113559524Y-102127475D01*
X113559524Y-102127475D02*
X113511905Y-102175094D01*
X113511905Y-102175094D02*
X113488095Y-102222713D01*
X113488095Y-102222713D02*
X113464286Y-102317951D01*
X113464286Y-102317951D02*
X113464286Y-102389379D01*
X113464286Y-102389379D02*
X113488095Y-102484617D01*
X113488095Y-102484617D02*
X113511905Y-102532236D01*
X113511905Y-102532236D02*
X113559524Y-102579856D01*
X113559524Y-102579856D02*
X113630952Y-102603665D01*
X113630952Y-102603665D02*
X113678571Y-102603665D01*
X113678571Y-102603665D02*
X113750000Y-102579856D01*
X113750000Y-102579856D02*
X113773809Y-102556046D01*
X113773809Y-102556046D02*
X113773809Y-102389379D01*
X113773809Y-102389379D02*
X113678571Y-102389379D01*
X113988095Y-102603665D02*
X113988095Y-102103665D01*
X113988095Y-102103665D02*
X114273809Y-102603665D01*
X114273809Y-102603665D02*
X114273809Y-102103665D01*
X114511905Y-102603665D02*
X114511905Y-102103665D01*
X114511905Y-102103665D02*
X114630953Y-102103665D01*
X114630953Y-102103665D02*
X114702381Y-102127475D01*
X114702381Y-102127475D02*
X114750000Y-102175094D01*
X114750000Y-102175094D02*
X114773810Y-102222713D01*
X114773810Y-102222713D02*
X114797619Y-102317951D01*
X114797619Y-102317951D02*
X114797619Y-102389379D01*
X114797619Y-102389379D02*
X114773810Y-102484617D01*
X114773810Y-102484617D02*
X114750000Y-102532236D01*
X114750000Y-102532236D02*
X114702381Y-102579856D01*
X114702381Y-102579856D02*
X114630953Y-102603665D01*
X114630953Y-102603665D02*
X114511905Y-102603665D01*
X115130953Y-102770332D02*
X115130953Y-102056046D01*
X115773809Y-102603665D02*
X115607143Y-102365570D01*
X115488095Y-102603665D02*
X115488095Y-102103665D01*
X115488095Y-102103665D02*
X115678571Y-102103665D01*
X115678571Y-102103665D02*
X115726190Y-102127475D01*
X115726190Y-102127475D02*
X115750000Y-102151284D01*
X115750000Y-102151284D02*
X115773809Y-102198903D01*
X115773809Y-102198903D02*
X115773809Y-102270332D01*
X115773809Y-102270332D02*
X115750000Y-102317951D01*
X115750000Y-102317951D02*
X115726190Y-102341760D01*
X115726190Y-102341760D02*
X115678571Y-102365570D01*
X115678571Y-102365570D02*
X115488095Y-102365570D01*
X115988095Y-102341760D02*
X116154762Y-102341760D01*
X116226190Y-102603665D02*
X115988095Y-102603665D01*
X115988095Y-102603665D02*
X115988095Y-102103665D01*
X115988095Y-102103665D02*
X116226190Y-102103665D01*
X116416667Y-102579856D02*
X116488095Y-102603665D01*
X116488095Y-102603665D02*
X116607143Y-102603665D01*
X116607143Y-102603665D02*
X116654762Y-102579856D01*
X116654762Y-102579856D02*
X116678571Y-102556046D01*
X116678571Y-102556046D02*
X116702381Y-102508427D01*
X116702381Y-102508427D02*
X116702381Y-102460808D01*
X116702381Y-102460808D02*
X116678571Y-102413189D01*
X116678571Y-102413189D02*
X116654762Y-102389379D01*
X116654762Y-102389379D02*
X116607143Y-102365570D01*
X116607143Y-102365570D02*
X116511905Y-102341760D01*
X116511905Y-102341760D02*
X116464286Y-102317951D01*
X116464286Y-102317951D02*
X116440476Y-102294141D01*
X116440476Y-102294141D02*
X116416667Y-102246522D01*
X116416667Y-102246522D02*
X116416667Y-102198903D01*
X116416667Y-102198903D02*
X116440476Y-102151284D01*
X116440476Y-102151284D02*
X116464286Y-102127475D01*
X116464286Y-102127475D02*
X116511905Y-102103665D01*
X116511905Y-102103665D02*
X116630952Y-102103665D01*
X116630952Y-102103665D02*
X116702381Y-102127475D01*
X116916666Y-102341760D02*
X117083333Y-102341760D01*
X117154761Y-102603665D02*
X116916666Y-102603665D01*
X116916666Y-102603665D02*
X116916666Y-102103665D01*
X116916666Y-102103665D02*
X117154761Y-102103665D01*
X117297619Y-102103665D02*
X117583333Y-102103665D01*
X117440476Y-102603665D02*
X117440476Y-102103665D01*
X113738095Y-103408637D02*
X113738095Y-102908637D01*
X113738095Y-102908637D02*
X113904762Y-103265780D01*
X113904762Y-103265780D02*
X114071428Y-102908637D01*
X114071428Y-102908637D02*
X114071428Y-103408637D01*
X114404762Y-102908637D02*
X114500000Y-102908637D01*
X114500000Y-102908637D02*
X114547619Y-102932447D01*
X114547619Y-102932447D02*
X114595238Y-102980066D01*
X114595238Y-102980066D02*
X114619048Y-103075304D01*
X114619048Y-103075304D02*
X114619048Y-103241970D01*
X114619048Y-103241970D02*
X114595238Y-103337208D01*
X114595238Y-103337208D02*
X114547619Y-103384828D01*
X114547619Y-103384828D02*
X114500000Y-103408637D01*
X114500000Y-103408637D02*
X114404762Y-103408637D01*
X114404762Y-103408637D02*
X114357143Y-103384828D01*
X114357143Y-103384828D02*
X114309524Y-103337208D01*
X114309524Y-103337208D02*
X114285715Y-103241970D01*
X114285715Y-103241970D02*
X114285715Y-103075304D01*
X114285715Y-103075304D02*
X114309524Y-102980066D01*
X114309524Y-102980066D02*
X114357143Y-102932447D01*
X114357143Y-102932447D02*
X114404762Y-102908637D01*
X114809525Y-103384828D02*
X114880953Y-103408637D01*
X114880953Y-103408637D02*
X115000001Y-103408637D01*
X115000001Y-103408637D02*
X115047620Y-103384828D01*
X115047620Y-103384828D02*
X115071429Y-103361018D01*
X115071429Y-103361018D02*
X115095239Y-103313399D01*
X115095239Y-103313399D02*
X115095239Y-103265780D01*
X115095239Y-103265780D02*
X115071429Y-103218161D01*
X115071429Y-103218161D02*
X115047620Y-103194351D01*
X115047620Y-103194351D02*
X115000001Y-103170542D01*
X115000001Y-103170542D02*
X114904763Y-103146732D01*
X114904763Y-103146732D02*
X114857144Y-103122923D01*
X114857144Y-103122923D02*
X114833334Y-103099113D01*
X114833334Y-103099113D02*
X114809525Y-103051494D01*
X114809525Y-103051494D02*
X114809525Y-103003875D01*
X114809525Y-103003875D02*
X114833334Y-102956256D01*
X114833334Y-102956256D02*
X114857144Y-102932447D01*
X114857144Y-102932447D02*
X114904763Y-102908637D01*
X114904763Y-102908637D02*
X115023810Y-102908637D01*
X115023810Y-102908637D02*
X115095239Y-102932447D01*
X115309524Y-103408637D02*
X115309524Y-102908637D01*
X115666667Y-103575304D02*
X115666667Y-102861018D01*
X116000000Y-103384828D02*
X116071428Y-103408637D01*
X116071428Y-103408637D02*
X116190476Y-103408637D01*
X116190476Y-103408637D02*
X116238095Y-103384828D01*
X116238095Y-103384828D02*
X116261904Y-103361018D01*
X116261904Y-103361018D02*
X116285714Y-103313399D01*
X116285714Y-103313399D02*
X116285714Y-103265780D01*
X116285714Y-103265780D02*
X116261904Y-103218161D01*
X116261904Y-103218161D02*
X116238095Y-103194351D01*
X116238095Y-103194351D02*
X116190476Y-103170542D01*
X116190476Y-103170542D02*
X116095238Y-103146732D01*
X116095238Y-103146732D02*
X116047619Y-103122923D01*
X116047619Y-103122923D02*
X116023809Y-103099113D01*
X116023809Y-103099113D02*
X116000000Y-103051494D01*
X116000000Y-103051494D02*
X116000000Y-103003875D01*
X116000000Y-103003875D02*
X116023809Y-102956256D01*
X116023809Y-102956256D02*
X116047619Y-102932447D01*
X116047619Y-102932447D02*
X116095238Y-102908637D01*
X116095238Y-102908637D02*
X116214285Y-102908637D01*
X116214285Y-102908637D02*
X116285714Y-102932447D01*
X116785713Y-103361018D02*
X116761904Y-103384828D01*
X116761904Y-103384828D02*
X116690475Y-103408637D01*
X116690475Y-103408637D02*
X116642856Y-103408637D01*
X116642856Y-103408637D02*
X116571428Y-103384828D01*
X116571428Y-103384828D02*
X116523809Y-103337208D01*
X116523809Y-103337208D02*
X116499999Y-103289589D01*
X116499999Y-103289589D02*
X116476190Y-103194351D01*
X116476190Y-103194351D02*
X116476190Y-103122923D01*
X116476190Y-103122923D02*
X116499999Y-103027685D01*
X116499999Y-103027685D02*
X116523809Y-102980066D01*
X116523809Y-102980066D02*
X116571428Y-102932447D01*
X116571428Y-102932447D02*
X116642856Y-102908637D01*
X116642856Y-102908637D02*
X116690475Y-102908637D01*
X116690475Y-102908637D02*
X116761904Y-102932447D01*
X116761904Y-102932447D02*
X116785713Y-102956256D01*
X116999999Y-103408637D02*
X116999999Y-102908637D01*
X117285713Y-103408637D02*
X117071428Y-103122923D01*
X117285713Y-102908637D02*
X116999999Y-103194351D01*
X113690477Y-103713609D02*
X113857143Y-104213609D01*
X113857143Y-104213609D02*
X114023810Y-103713609D01*
X114476190Y-104165990D02*
X114452381Y-104189800D01*
X114452381Y-104189800D02*
X114380952Y-104213609D01*
X114380952Y-104213609D02*
X114333333Y-104213609D01*
X114333333Y-104213609D02*
X114261905Y-104189800D01*
X114261905Y-104189800D02*
X114214286Y-104142180D01*
X114214286Y-104142180D02*
X114190476Y-104094561D01*
X114190476Y-104094561D02*
X114166667Y-103999323D01*
X114166667Y-103999323D02*
X114166667Y-103927895D01*
X114166667Y-103927895D02*
X114190476Y-103832657D01*
X114190476Y-103832657D02*
X114214286Y-103785038D01*
X114214286Y-103785038D02*
X114261905Y-103737419D01*
X114261905Y-103737419D02*
X114333333Y-103713609D01*
X114333333Y-103713609D02*
X114380952Y-103713609D01*
X114380952Y-103713609D02*
X114452381Y-103737419D01*
X114452381Y-103737419D02*
X114476190Y-103761228D01*
X114976190Y-104165990D02*
X114952381Y-104189800D01*
X114952381Y-104189800D02*
X114880952Y-104213609D01*
X114880952Y-104213609D02*
X114833333Y-104213609D01*
X114833333Y-104213609D02*
X114761905Y-104189800D01*
X114761905Y-104189800D02*
X114714286Y-104142180D01*
X114714286Y-104142180D02*
X114690476Y-104094561D01*
X114690476Y-104094561D02*
X114666667Y-103999323D01*
X114666667Y-103999323D02*
X114666667Y-103927895D01*
X114666667Y-103927895D02*
X114690476Y-103832657D01*
X114690476Y-103832657D02*
X114714286Y-103785038D01*
X114714286Y-103785038D02*
X114761905Y-103737419D01*
X114761905Y-103737419D02*
X114833333Y-103713609D01*
X114833333Y-103713609D02*
X114880952Y-103713609D01*
X114880952Y-103713609D02*
X114952381Y-103737419D01*
X114952381Y-103737419D02*
X114976190Y-103761228D01*
X115309524Y-104380276D02*
X115309524Y-103665990D01*
X115666666Y-104213609D02*
X115666666Y-103713609D01*
X115666666Y-103713609D02*
X115833333Y-104070752D01*
X115833333Y-104070752D02*
X115999999Y-103713609D01*
X115999999Y-103713609D02*
X115999999Y-104213609D01*
X116238095Y-104213609D02*
X116238095Y-103713609D01*
X116452381Y-104189800D02*
X116523809Y-104213609D01*
X116523809Y-104213609D02*
X116642857Y-104213609D01*
X116642857Y-104213609D02*
X116690476Y-104189800D01*
X116690476Y-104189800D02*
X116714285Y-104165990D01*
X116714285Y-104165990D02*
X116738095Y-104118371D01*
X116738095Y-104118371D02*
X116738095Y-104070752D01*
X116738095Y-104070752D02*
X116714285Y-104023133D01*
X116714285Y-104023133D02*
X116690476Y-103999323D01*
X116690476Y-103999323D02*
X116642857Y-103975514D01*
X116642857Y-103975514D02*
X116547619Y-103951704D01*
X116547619Y-103951704D02*
X116500000Y-103927895D01*
X116500000Y-103927895D02*
X116476190Y-103904085D01*
X116476190Y-103904085D02*
X116452381Y-103856466D01*
X116452381Y-103856466D02*
X116452381Y-103808847D01*
X116452381Y-103808847D02*
X116476190Y-103761228D01*
X116476190Y-103761228D02*
X116500000Y-103737419D01*
X116500000Y-103737419D02*
X116547619Y-103713609D01*
X116547619Y-103713609D02*
X116666666Y-103713609D01*
X116666666Y-103713609D02*
X116738095Y-103737419D01*
X117047618Y-103713609D02*
X117142856Y-103713609D01*
X117142856Y-103713609D02*
X117190475Y-103737419D01*
X117190475Y-103737419D02*
X117238094Y-103785038D01*
X117238094Y-103785038D02*
X117261904Y-103880276D01*
X117261904Y-103880276D02*
X117261904Y-104046942D01*
X117261904Y-104046942D02*
X117238094Y-104142180D01*
X117238094Y-104142180D02*
X117190475Y-104189800D01*
X117190475Y-104189800D02*
X117142856Y-104213609D01*
X117142856Y-104213609D02*
X117047618Y-104213609D01*
X117047618Y-104213609D02*
X116999999Y-104189800D01*
X116999999Y-104189800D02*
X116952380Y-104142180D01*
X116952380Y-104142180D02*
X116928571Y-104046942D01*
X116928571Y-104046942D02*
X116928571Y-103880276D01*
X116928571Y-103880276D02*
X116952380Y-103785038D01*
X116952380Y-103785038D02*
X116999999Y-103737419D01*
X116999999Y-103737419D02*
X117047618Y-103713609D01*
X88499122Y-91092466D02*
X88432455Y-91059133D01*
X88432455Y-91059133D02*
X88332455Y-91059133D01*
X88332455Y-91059133D02*
X88232455Y-91092466D01*
X88232455Y-91092466D02*
X88165789Y-91159133D01*
X88165789Y-91159133D02*
X88132455Y-91225800D01*
X88132455Y-91225800D02*
X88099122Y-91359133D01*
X88099122Y-91359133D02*
X88099122Y-91459133D01*
X88099122Y-91459133D02*
X88132455Y-91592466D01*
X88132455Y-91592466D02*
X88165789Y-91659133D01*
X88165789Y-91659133D02*
X88232455Y-91725800D01*
X88232455Y-91725800D02*
X88332455Y-91759133D01*
X88332455Y-91759133D02*
X88399122Y-91759133D01*
X88399122Y-91759133D02*
X88499122Y-91725800D01*
X88499122Y-91725800D02*
X88532455Y-91692466D01*
X88532455Y-91692466D02*
X88532455Y-91459133D01*
X88532455Y-91459133D02*
X88399122Y-91459133D01*
X88832455Y-91759133D02*
X88832455Y-91059133D01*
X88832455Y-91059133D02*
X89232455Y-91759133D01*
X89232455Y-91759133D02*
X89232455Y-91059133D01*
X89565788Y-91759133D02*
X89565788Y-91059133D01*
X89565788Y-91059133D02*
X89732455Y-91059133D01*
X89732455Y-91059133D02*
X89832455Y-91092466D01*
X89832455Y-91092466D02*
X89899122Y-91159133D01*
X89899122Y-91159133D02*
X89932455Y-91225800D01*
X89932455Y-91225800D02*
X89965788Y-91359133D01*
X89965788Y-91359133D02*
X89965788Y-91459133D01*
X89965788Y-91459133D02*
X89932455Y-91592466D01*
X89932455Y-91592466D02*
X89899122Y-91659133D01*
X89899122Y-91659133D02*
X89832455Y-91725800D01*
X89832455Y-91725800D02*
X89732455Y-91759133D01*
X89732455Y-91759133D02*
X89565788Y-91759133D01*
X91202455Y-86189133D02*
X91435789Y-86889133D01*
X91435789Y-86889133D02*
X91669122Y-86189133D01*
X92302455Y-86822466D02*
X92269122Y-86855800D01*
X92269122Y-86855800D02*
X92169122Y-86889133D01*
X92169122Y-86889133D02*
X92102455Y-86889133D01*
X92102455Y-86889133D02*
X92002455Y-86855800D01*
X92002455Y-86855800D02*
X91935789Y-86789133D01*
X91935789Y-86789133D02*
X91902455Y-86722466D01*
X91902455Y-86722466D02*
X91869122Y-86589133D01*
X91869122Y-86589133D02*
X91869122Y-86489133D01*
X91869122Y-86489133D02*
X91902455Y-86355800D01*
X91902455Y-86355800D02*
X91935789Y-86289133D01*
X91935789Y-86289133D02*
X92002455Y-86222466D01*
X92002455Y-86222466D02*
X92102455Y-86189133D01*
X92102455Y-86189133D02*
X92169122Y-86189133D01*
X92169122Y-86189133D02*
X92269122Y-86222466D01*
X92269122Y-86222466D02*
X92302455Y-86255800D01*
X93002455Y-86822466D02*
X92969122Y-86855800D01*
X92969122Y-86855800D02*
X92869122Y-86889133D01*
X92869122Y-86889133D02*
X92802455Y-86889133D01*
X92802455Y-86889133D02*
X92702455Y-86855800D01*
X92702455Y-86855800D02*
X92635789Y-86789133D01*
X92635789Y-86789133D02*
X92602455Y-86722466D01*
X92602455Y-86722466D02*
X92569122Y-86589133D01*
X92569122Y-86589133D02*
X92569122Y-86489133D01*
X92569122Y-86489133D02*
X92602455Y-86355800D01*
X92602455Y-86355800D02*
X92635789Y-86289133D01*
X92635789Y-86289133D02*
X92702455Y-86222466D01*
X92702455Y-86222466D02*
X92802455Y-86189133D01*
X92802455Y-86189133D02*
X92869122Y-86189133D01*
X92869122Y-86189133D02*
X92969122Y-86222466D01*
X92969122Y-86222466D02*
X93002455Y-86255800D01*
X94589122Y-104589133D02*
X94189122Y-104589133D01*
X94389122Y-104589133D02*
X94389122Y-103889133D01*
X94389122Y-103889133D02*
X94322455Y-103989133D01*
X94322455Y-103989133D02*
X94255789Y-104055800D01*
X94255789Y-104055800D02*
X94189122Y-104089133D01*
X96519122Y-103995800D02*
X96552455Y-103962466D01*
X96552455Y-103962466D02*
X96619122Y-103929133D01*
X96619122Y-103929133D02*
X96785789Y-103929133D01*
X96785789Y-103929133D02*
X96852455Y-103962466D01*
X96852455Y-103962466D02*
X96885789Y-103995800D01*
X96885789Y-103995800D02*
X96919122Y-104062466D01*
X96919122Y-104062466D02*
X96919122Y-104129133D01*
X96919122Y-104129133D02*
X96885789Y-104229133D01*
X96885789Y-104229133D02*
X96485789Y-104629133D01*
X96485789Y-104629133D02*
X96919122Y-104629133D01*
X98995789Y-103929133D02*
X99429122Y-103929133D01*
X99429122Y-103929133D02*
X99195789Y-104195800D01*
X99195789Y-104195800D02*
X99295789Y-104195800D01*
X99295789Y-104195800D02*
X99362455Y-104229133D01*
X99362455Y-104229133D02*
X99395789Y-104262466D01*
X99395789Y-104262466D02*
X99429122Y-104329133D01*
X99429122Y-104329133D02*
X99429122Y-104495800D01*
X99429122Y-104495800D02*
X99395789Y-104562466D01*
X99395789Y-104562466D02*
X99362455Y-104595800D01*
X99362455Y-104595800D02*
X99295789Y-104629133D01*
X99295789Y-104629133D02*
X99095789Y-104629133D01*
X99095789Y-104629133D02*
X99029122Y-104595800D01*
X99029122Y-104595800D02*
X98995789Y-104562466D01*
X101872455Y-104222466D02*
X101872455Y-104689133D01*
X101705789Y-103955800D02*
X101539122Y-104455800D01*
X101539122Y-104455800D02*
X101972455Y-104455800D01*
X104515789Y-103929133D02*
X104182455Y-103929133D01*
X104182455Y-103929133D02*
X104149122Y-104262466D01*
X104149122Y-104262466D02*
X104182455Y-104229133D01*
X104182455Y-104229133D02*
X104249122Y-104195800D01*
X104249122Y-104195800D02*
X104415789Y-104195800D01*
X104415789Y-104195800D02*
X104482455Y-104229133D01*
X104482455Y-104229133D02*
X104515789Y-104262466D01*
X104515789Y-104262466D02*
X104549122Y-104329133D01*
X104549122Y-104329133D02*
X104549122Y-104495800D01*
X104549122Y-104495800D02*
X104515789Y-104562466D01*
X104515789Y-104562466D02*
X104482455Y-104595800D01*
X104482455Y-104595800D02*
X104415789Y-104629133D01*
X104415789Y-104629133D02*
X104249122Y-104629133D01*
X104249122Y-104629133D02*
X104182455Y-104595800D01*
X104182455Y-104595800D02*
X104149122Y-104562466D01*
X107012455Y-103929133D02*
X106879122Y-103929133D01*
X106879122Y-103929133D02*
X106812455Y-103962466D01*
X106812455Y-103962466D02*
X106779122Y-103995800D01*
X106779122Y-103995800D02*
X106712455Y-104095800D01*
X106712455Y-104095800D02*
X106679122Y-104229133D01*
X106679122Y-104229133D02*
X106679122Y-104495800D01*
X106679122Y-104495800D02*
X106712455Y-104562466D01*
X106712455Y-104562466D02*
X106745789Y-104595800D01*
X106745789Y-104595800D02*
X106812455Y-104629133D01*
X106812455Y-104629133D02*
X106945789Y-104629133D01*
X106945789Y-104629133D02*
X107012455Y-104595800D01*
X107012455Y-104595800D02*
X107045789Y-104562466D01*
X107045789Y-104562466D02*
X107079122Y-104495800D01*
X107079122Y-104495800D02*
X107079122Y-104329133D01*
X107079122Y-104329133D02*
X107045789Y-104262466D01*
X107045789Y-104262466D02*
X107012455Y-104229133D01*
X107012455Y-104229133D02*
X106945789Y-104195800D01*
X106945789Y-104195800D02*
X106812455Y-104195800D01*
X106812455Y-104195800D02*
X106745789Y-104229133D01*
X106745789Y-104229133D02*
X106712455Y-104262466D01*
X106712455Y-104262466D02*
X106679122Y-104329133D01*
X109095789Y-103929133D02*
X109562455Y-103929133D01*
X109562455Y-103929133D02*
X109262455Y-104629133D01*
X111579122Y-103812466D02*
X111512455Y-103779133D01*
X111512455Y-103779133D02*
X111412455Y-103779133D01*
X111412455Y-103779133D02*
X111312455Y-103812466D01*
X111312455Y-103812466D02*
X111245789Y-103879133D01*
X111245789Y-103879133D02*
X111212455Y-103945800D01*
X111212455Y-103945800D02*
X111179122Y-104079133D01*
X111179122Y-104079133D02*
X111179122Y-104179133D01*
X111179122Y-104179133D02*
X111212455Y-104312466D01*
X111212455Y-104312466D02*
X111245789Y-104379133D01*
X111245789Y-104379133D02*
X111312455Y-104445800D01*
X111312455Y-104445800D02*
X111412455Y-104479133D01*
X111412455Y-104479133D02*
X111479122Y-104479133D01*
X111479122Y-104479133D02*
X111579122Y-104445800D01*
X111579122Y-104445800D02*
X111612455Y-104412466D01*
X111612455Y-104412466D02*
X111612455Y-104179133D01*
X111612455Y-104179133D02*
X111479122Y-104179133D01*
X111912455Y-104479133D02*
X111912455Y-103779133D01*
X111912455Y-103779133D02*
X112312455Y-104479133D01*
X112312455Y-104479133D02*
X112312455Y-103779133D01*
X112645788Y-104479133D02*
X112645788Y-103779133D01*
X112645788Y-103779133D02*
X112812455Y-103779133D01*
X112812455Y-103779133D02*
X112912455Y-103812466D01*
X112912455Y-103812466D02*
X112979122Y-103879133D01*
X112979122Y-103879133D02*
X113012455Y-103945800D01*
X113012455Y-103945800D02*
X113045788Y-104079133D01*
X113045788Y-104079133D02*
X113045788Y-104179133D01*
X113045788Y-104179133D02*
X113012455Y-104312466D01*
X113012455Y-104312466D02*
X112979122Y-104379133D01*
X112979122Y-104379133D02*
X112912455Y-104445800D01*
X112912455Y-104445800D02*
X112812455Y-104479133D01*
X112812455Y-104479133D02*
X112645788Y-104479133D01*
X125112455Y-87829133D02*
X125345789Y-88529133D01*
X125345789Y-88529133D02*
X125579122Y-87829133D01*
X126212455Y-88462466D02*
X126179122Y-88495800D01*
X126179122Y-88495800D02*
X126079122Y-88529133D01*
X126079122Y-88529133D02*
X126012455Y-88529133D01*
X126012455Y-88529133D02*
X125912455Y-88495800D01*
X125912455Y-88495800D02*
X125845789Y-88429133D01*
X125845789Y-88429133D02*
X125812455Y-88362466D01*
X125812455Y-88362466D02*
X125779122Y-88229133D01*
X125779122Y-88229133D02*
X125779122Y-88129133D01*
X125779122Y-88129133D02*
X125812455Y-87995800D01*
X125812455Y-87995800D02*
X125845789Y-87929133D01*
X125845789Y-87929133D02*
X125912455Y-87862466D01*
X125912455Y-87862466D02*
X126012455Y-87829133D01*
X126012455Y-87829133D02*
X126079122Y-87829133D01*
X126079122Y-87829133D02*
X126179122Y-87862466D01*
X126179122Y-87862466D02*
X126212455Y-87895800D01*
X126912455Y-88462466D02*
X126879122Y-88495800D01*
X126879122Y-88495800D02*
X126779122Y-88529133D01*
X126779122Y-88529133D02*
X126712455Y-88529133D01*
X126712455Y-88529133D02*
X126612455Y-88495800D01*
X126612455Y-88495800D02*
X126545789Y-88429133D01*
X126545789Y-88429133D02*
X126512455Y-88362466D01*
X126512455Y-88362466D02*
X126479122Y-88229133D01*
X126479122Y-88229133D02*
X126479122Y-88129133D01*
X126479122Y-88129133D02*
X126512455Y-87995800D01*
X126512455Y-87995800D02*
X126545789Y-87929133D01*
X126545789Y-87929133D02*
X126612455Y-87862466D01*
X126612455Y-87862466D02*
X126712455Y-87829133D01*
X126712455Y-87829133D02*
X126779122Y-87829133D01*
X126779122Y-87829133D02*
X126879122Y-87862466D01*
X126879122Y-87862466D02*
X126912455Y-87895800D01*
X125589122Y-95882466D02*
X125522455Y-95849133D01*
X125522455Y-95849133D02*
X125422455Y-95849133D01*
X125422455Y-95849133D02*
X125322455Y-95882466D01*
X125322455Y-95882466D02*
X125255789Y-95949133D01*
X125255789Y-95949133D02*
X125222455Y-96015800D01*
X125222455Y-96015800D02*
X125189122Y-96149133D01*
X125189122Y-96149133D02*
X125189122Y-96249133D01*
X125189122Y-96249133D02*
X125222455Y-96382466D01*
X125222455Y-96382466D02*
X125255789Y-96449133D01*
X125255789Y-96449133D02*
X125322455Y-96515800D01*
X125322455Y-96515800D02*
X125422455Y-96549133D01*
X125422455Y-96549133D02*
X125489122Y-96549133D01*
X125489122Y-96549133D02*
X125589122Y-96515800D01*
X125589122Y-96515800D02*
X125622455Y-96482466D01*
X125622455Y-96482466D02*
X125622455Y-96249133D01*
X125622455Y-96249133D02*
X125489122Y-96249133D01*
X125922455Y-96549133D02*
X125922455Y-95849133D01*
X125922455Y-95849133D02*
X126322455Y-96549133D01*
X126322455Y-96549133D02*
X126322455Y-95849133D01*
X126655788Y-96549133D02*
X126655788Y-95849133D01*
X126655788Y-95849133D02*
X126822455Y-95849133D01*
X126822455Y-95849133D02*
X126922455Y-95882466D01*
X126922455Y-95882466D02*
X126989122Y-95949133D01*
X126989122Y-95949133D02*
X127022455Y-96015800D01*
X127022455Y-96015800D02*
X127055788Y-96149133D01*
X127055788Y-96149133D02*
X127055788Y-96249133D01*
X127055788Y-96249133D02*
X127022455Y-96382466D01*
X127022455Y-96382466D02*
X126989122Y-96449133D01*
X126989122Y-96449133D02*
X126922455Y-96515800D01*
X126922455Y-96515800D02*
X126822455Y-96549133D01*
X126822455Y-96549133D02*
X126655788Y-96549133D01*
X125599122Y-85882466D02*
X125532455Y-85849133D01*
X125532455Y-85849133D02*
X125432455Y-85849133D01*
X125432455Y-85849133D02*
X125332455Y-85882466D01*
X125332455Y-85882466D02*
X125265789Y-85949133D01*
X125265789Y-85949133D02*
X125232455Y-86015800D01*
X125232455Y-86015800D02*
X125199122Y-86149133D01*
X125199122Y-86149133D02*
X125199122Y-86249133D01*
X125199122Y-86249133D02*
X125232455Y-86382466D01*
X125232455Y-86382466D02*
X125265789Y-86449133D01*
X125265789Y-86449133D02*
X125332455Y-86515800D01*
X125332455Y-86515800D02*
X125432455Y-86549133D01*
X125432455Y-86549133D02*
X125499122Y-86549133D01*
X125499122Y-86549133D02*
X125599122Y-86515800D01*
X125599122Y-86515800D02*
X125632455Y-86482466D01*
X125632455Y-86482466D02*
X125632455Y-86249133D01*
X125632455Y-86249133D02*
X125499122Y-86249133D01*
X125932455Y-86549133D02*
X125932455Y-85849133D01*
X125932455Y-85849133D02*
X126332455Y-86549133D01*
X126332455Y-86549133D02*
X126332455Y-85849133D01*
X126665788Y-86549133D02*
X126665788Y-85849133D01*
X126665788Y-85849133D02*
X126832455Y-85849133D01*
X126832455Y-85849133D02*
X126932455Y-85882466D01*
X126932455Y-85882466D02*
X126999122Y-85949133D01*
X126999122Y-85949133D02*
X127032455Y-86015800D01*
X127032455Y-86015800D02*
X127065788Y-86149133D01*
X127065788Y-86149133D02*
X127065788Y-86249133D01*
X127065788Y-86249133D02*
X127032455Y-86382466D01*
X127032455Y-86382466D02*
X126999122Y-86449133D01*
X126999122Y-86449133D02*
X126932455Y-86515800D01*
X126932455Y-86515800D02*
X126832455Y-86549133D01*
X126832455Y-86549133D02*
X126665788Y-86549133D01*
X125172455Y-97769133D02*
X125405789Y-98469133D01*
X125405789Y-98469133D02*
X125639122Y-97769133D01*
X126272455Y-98402466D02*
X126239122Y-98435800D01*
X126239122Y-98435800D02*
X126139122Y-98469133D01*
X126139122Y-98469133D02*
X126072455Y-98469133D01*
X126072455Y-98469133D02*
X125972455Y-98435800D01*
X125972455Y-98435800D02*
X125905789Y-98369133D01*
X125905789Y-98369133D02*
X125872455Y-98302466D01*
X125872455Y-98302466D02*
X125839122Y-98169133D01*
X125839122Y-98169133D02*
X125839122Y-98069133D01*
X125839122Y-98069133D02*
X125872455Y-97935800D01*
X125872455Y-97935800D02*
X125905789Y-97869133D01*
X125905789Y-97869133D02*
X125972455Y-97802466D01*
X125972455Y-97802466D02*
X126072455Y-97769133D01*
X126072455Y-97769133D02*
X126139122Y-97769133D01*
X126139122Y-97769133D02*
X126239122Y-97802466D01*
X126239122Y-97802466D02*
X126272455Y-97835800D01*
X126972455Y-98402466D02*
X126939122Y-98435800D01*
X126939122Y-98435800D02*
X126839122Y-98469133D01*
X126839122Y-98469133D02*
X126772455Y-98469133D01*
X126772455Y-98469133D02*
X126672455Y-98435800D01*
X126672455Y-98435800D02*
X126605789Y-98369133D01*
X126605789Y-98369133D02*
X126572455Y-98302466D01*
X126572455Y-98302466D02*
X126539122Y-98169133D01*
X126539122Y-98169133D02*
X126539122Y-98069133D01*
X126539122Y-98069133D02*
X126572455Y-97935800D01*
X126572455Y-97935800D02*
X126605789Y-97869133D01*
X126605789Y-97869133D02*
X126672455Y-97802466D01*
X126672455Y-97802466D02*
X126772455Y-97769133D01*
X126772455Y-97769133D02*
X126839122Y-97769133D01*
X126839122Y-97769133D02*
X126939122Y-97802466D01*
X126939122Y-97802466D02*
X126972455Y-97835800D01*
X125249122Y-92335800D02*
X125349122Y-92369133D01*
X125349122Y-92369133D02*
X125515789Y-92369133D01*
X125515789Y-92369133D02*
X125582455Y-92335800D01*
X125582455Y-92335800D02*
X125615789Y-92302466D01*
X125615789Y-92302466D02*
X125649122Y-92235800D01*
X125649122Y-92235800D02*
X125649122Y-92169133D01*
X125649122Y-92169133D02*
X125615789Y-92102466D01*
X125615789Y-92102466D02*
X125582455Y-92069133D01*
X125582455Y-92069133D02*
X125515789Y-92035800D01*
X125515789Y-92035800D02*
X125382455Y-92002466D01*
X125382455Y-92002466D02*
X125315789Y-91969133D01*
X125315789Y-91969133D02*
X125282455Y-91935800D01*
X125282455Y-91935800D02*
X125249122Y-91869133D01*
X125249122Y-91869133D02*
X125249122Y-91802466D01*
X125249122Y-91802466D02*
X125282455Y-91735800D01*
X125282455Y-91735800D02*
X125315789Y-91702466D01*
X125315789Y-91702466D02*
X125382455Y-91669133D01*
X125382455Y-91669133D02*
X125549122Y-91669133D01*
X125549122Y-91669133D02*
X125649122Y-91702466D01*
X126349122Y-92302466D02*
X126315789Y-92335800D01*
X126315789Y-92335800D02*
X126215789Y-92369133D01*
X126215789Y-92369133D02*
X126149122Y-92369133D01*
X126149122Y-92369133D02*
X126049122Y-92335800D01*
X126049122Y-92335800D02*
X125982456Y-92269133D01*
X125982456Y-92269133D02*
X125949122Y-92202466D01*
X125949122Y-92202466D02*
X125915789Y-92069133D01*
X125915789Y-92069133D02*
X125915789Y-91969133D01*
X125915789Y-91969133D02*
X125949122Y-91835800D01*
X125949122Y-91835800D02*
X125982456Y-91769133D01*
X125982456Y-91769133D02*
X126049122Y-91702466D01*
X126049122Y-91702466D02*
X126149122Y-91669133D01*
X126149122Y-91669133D02*
X126215789Y-91669133D01*
X126215789Y-91669133D02*
X126315789Y-91702466D01*
X126315789Y-91702466D02*
X126349122Y-91735800D01*
X126649122Y-92369133D02*
X126649122Y-91669133D01*
X127049122Y-92369133D02*
X126749122Y-91969133D01*
X127049122Y-91669133D02*
X126649122Y-92069133D01*
X125289122Y-90295800D02*
X125389122Y-90329133D01*
X125389122Y-90329133D02*
X125555789Y-90329133D01*
X125555789Y-90329133D02*
X125622455Y-90295800D01*
X125622455Y-90295800D02*
X125655789Y-90262466D01*
X125655789Y-90262466D02*
X125689122Y-90195800D01*
X125689122Y-90195800D02*
X125689122Y-90129133D01*
X125689122Y-90129133D02*
X125655789Y-90062466D01*
X125655789Y-90062466D02*
X125622455Y-90029133D01*
X125622455Y-90029133D02*
X125555789Y-89995800D01*
X125555789Y-89995800D02*
X125422455Y-89962466D01*
X125422455Y-89962466D02*
X125355789Y-89929133D01*
X125355789Y-89929133D02*
X125322455Y-89895800D01*
X125322455Y-89895800D02*
X125289122Y-89829133D01*
X125289122Y-89829133D02*
X125289122Y-89762466D01*
X125289122Y-89762466D02*
X125322455Y-89695800D01*
X125322455Y-89695800D02*
X125355789Y-89662466D01*
X125355789Y-89662466D02*
X125422455Y-89629133D01*
X125422455Y-89629133D02*
X125589122Y-89629133D01*
X125589122Y-89629133D02*
X125689122Y-89662466D01*
X125989122Y-90329133D02*
X125989122Y-89629133D01*
X125989122Y-89629133D02*
X126155789Y-89629133D01*
X126155789Y-89629133D02*
X126255789Y-89662466D01*
X126255789Y-89662466D02*
X126322456Y-89729133D01*
X126322456Y-89729133D02*
X126355789Y-89795800D01*
X126355789Y-89795800D02*
X126389122Y-89929133D01*
X126389122Y-89929133D02*
X126389122Y-90029133D01*
X126389122Y-90029133D02*
X126355789Y-90162466D01*
X126355789Y-90162466D02*
X126322456Y-90229133D01*
X126322456Y-90229133D02*
X126255789Y-90295800D01*
X126255789Y-90295800D02*
X126155789Y-90329133D01*
X126155789Y-90329133D02*
X125989122Y-90329133D01*
X126655789Y-90129133D02*
X126989122Y-90129133D01*
X126589122Y-90329133D02*
X126822456Y-89629133D01*
X126822456Y-89629133D02*
X127055789Y-90329133D01*
X126162455Y-100639133D02*
X125929122Y-100305800D01*
X125762455Y-100639133D02*
X125762455Y-99939133D01*
X125762455Y-99939133D02*
X126029122Y-99939133D01*
X126029122Y-99939133D02*
X126095789Y-99972466D01*
X126095789Y-99972466D02*
X126129122Y-100005800D01*
X126129122Y-100005800D02*
X126162455Y-100072466D01*
X126162455Y-100072466D02*
X126162455Y-100172466D01*
X126162455Y-100172466D02*
X126129122Y-100239133D01*
X126129122Y-100239133D02*
X126095789Y-100272466D01*
X126095789Y-100272466D02*
X126029122Y-100305800D01*
X126029122Y-100305800D02*
X125762455Y-100305800D01*
X126395789Y-99939133D02*
X126862455Y-100639133D01*
X126862455Y-99939133D02*
X126395789Y-100639133D01*
X125822455Y-101859133D02*
X126222455Y-101859133D01*
X126022455Y-102559133D02*
X126022455Y-101859133D01*
X126389122Y-101859133D02*
X126855788Y-102559133D01*
X126855788Y-101859133D02*
X126389122Y-102559133D01*
X117370866Y-105562455D02*
X116670866Y-105795789D01*
X116670866Y-105795789D02*
X117370866Y-106029122D01*
X116737533Y-106662455D02*
X116704200Y-106629122D01*
X116704200Y-106629122D02*
X116670866Y-106529122D01*
X116670866Y-106529122D02*
X116670866Y-106462455D01*
X116670866Y-106462455D02*
X116704200Y-106362455D01*
X116704200Y-106362455D02*
X116770866Y-106295789D01*
X116770866Y-106295789D02*
X116837533Y-106262455D01*
X116837533Y-106262455D02*
X116970866Y-106229122D01*
X116970866Y-106229122D02*
X117070866Y-106229122D01*
X117070866Y-106229122D02*
X117204200Y-106262455D01*
X117204200Y-106262455D02*
X117270866Y-106295789D01*
X117270866Y-106295789D02*
X117337533Y-106362455D01*
X117337533Y-106362455D02*
X117370866Y-106462455D01*
X117370866Y-106462455D02*
X117370866Y-106529122D01*
X117370866Y-106529122D02*
X117337533Y-106629122D01*
X117337533Y-106629122D02*
X117304200Y-106662455D01*
X116737533Y-107362455D02*
X116704200Y-107329122D01*
X116704200Y-107329122D02*
X116670866Y-107229122D01*
X116670866Y-107229122D02*
X116670866Y-107162455D01*
X116670866Y-107162455D02*
X116704200Y-107062455D01*
X116704200Y-107062455D02*
X116770866Y-106995789D01*
X116770866Y-106995789D02*
X116837533Y-106962455D01*
X116837533Y-106962455D02*
X116970866Y-106929122D01*
X116970866Y-106929122D02*
X117070866Y-106929122D01*
X117070866Y-106929122D02*
X117204200Y-106962455D01*
X117204200Y-106962455D02*
X117270866Y-106995789D01*
X117270866Y-106995789D02*
X117337533Y-107062455D01*
X117337533Y-107062455D02*
X117370866Y-107162455D01*
X117370866Y-107162455D02*
X117370866Y-107229122D01*
X117370866Y-107229122D02*
X117337533Y-107329122D01*
X117337533Y-107329122D02*
X117304200Y-107362455D01*
X122753333Y-84838633D02*
X122520000Y-84505300D01*
X122353333Y-84838633D02*
X122353333Y-84138633D01*
X122353333Y-84138633D02*
X122620000Y-84138633D01*
X122620000Y-84138633D02*
X122686667Y-84171966D01*
X122686667Y-84171966D02*
X122720000Y-84205300D01*
X122720000Y-84205300D02*
X122753333Y-84271966D01*
X122753333Y-84271966D02*
X122753333Y-84371966D01*
X122753333Y-84371966D02*
X122720000Y-84438633D01*
X122720000Y-84438633D02*
X122686667Y-84471966D01*
X122686667Y-84471966D02*
X122620000Y-84505300D01*
X122620000Y-84505300D02*
X122353333Y-84505300D01*
X123386667Y-84138633D02*
X123053333Y-84138633D01*
X123053333Y-84138633D02*
X123020000Y-84471966D01*
X123020000Y-84471966D02*
X123053333Y-84438633D01*
X123053333Y-84438633D02*
X123120000Y-84405300D01*
X123120000Y-84405300D02*
X123286667Y-84405300D01*
X123286667Y-84405300D02*
X123353333Y-84438633D01*
X123353333Y-84438633D02*
X123386667Y-84471966D01*
X123386667Y-84471966D02*
X123420000Y-84538633D01*
X123420000Y-84538633D02*
X123420000Y-84705300D01*
X123420000Y-84705300D02*
X123386667Y-84771966D01*
X123386667Y-84771966D02*
X123353333Y-84805300D01*
X123353333Y-84805300D02*
X123286667Y-84838633D01*
X123286667Y-84838633D02*
X123120000Y-84838633D01*
X123120000Y-84838633D02*
X123053333Y-84805300D01*
X123053333Y-84805300D02*
X123020000Y-84771966D01*
X89096667Y-102415300D02*
X89096667Y-102748633D01*
X88863333Y-102048633D02*
X89096667Y-102415300D01*
X89096667Y-102415300D02*
X89330000Y-102048633D01*
X89930000Y-102748633D02*
X89530000Y-102748633D01*
X89730000Y-102748633D02*
X89730000Y-102048633D01*
X89730000Y-102048633D02*
X89663333Y-102148633D01*
X89663333Y-102148633D02*
X89596667Y-102215300D01*
X89596667Y-102215300D02*
X89530000Y-102248633D01*
X119110833Y-81328633D02*
X119110833Y-80628633D01*
X119110833Y-80628633D02*
X119277500Y-80628633D01*
X119277500Y-80628633D02*
X119377500Y-80661966D01*
X119377500Y-80661966D02*
X119444167Y-80728633D01*
X119444167Y-80728633D02*
X119477500Y-80795300D01*
X119477500Y-80795300D02*
X119510833Y-80928633D01*
X119510833Y-80928633D02*
X119510833Y-81028633D01*
X119510833Y-81028633D02*
X119477500Y-81161966D01*
X119477500Y-81161966D02*
X119444167Y-81228633D01*
X119444167Y-81228633D02*
X119377500Y-81295300D01*
X119377500Y-81295300D02*
X119277500Y-81328633D01*
X119277500Y-81328633D02*
X119110833Y-81328633D01*
X120177500Y-81328633D02*
X119777500Y-81328633D01*
X119977500Y-81328633D02*
X119977500Y-80628633D01*
X119977500Y-80628633D02*
X119910833Y-80728633D01*
X119910833Y-80728633D02*
X119844167Y-80795300D01*
X119844167Y-80795300D02*
X119777500Y-80828633D01*
X119113333Y-94428633D02*
X118880000Y-94095300D01*
X118713333Y-94428633D02*
X118713333Y-93728633D01*
X118713333Y-93728633D02*
X118980000Y-93728633D01*
X118980000Y-93728633D02*
X119046667Y-93761966D01*
X119046667Y-93761966D02*
X119080000Y-93795300D01*
X119080000Y-93795300D02*
X119113333Y-93861966D01*
X119113333Y-93861966D02*
X119113333Y-93961966D01*
X119113333Y-93961966D02*
X119080000Y-94028633D01*
X119080000Y-94028633D02*
X119046667Y-94061966D01*
X119046667Y-94061966D02*
X118980000Y-94095300D01*
X118980000Y-94095300D02*
X118713333Y-94095300D01*
X119346667Y-93728633D02*
X119780000Y-93728633D01*
X119780000Y-93728633D02*
X119546667Y-93995300D01*
X119546667Y-93995300D02*
X119646667Y-93995300D01*
X119646667Y-93995300D02*
X119713333Y-94028633D01*
X119713333Y-94028633D02*
X119746667Y-94061966D01*
X119746667Y-94061966D02*
X119780000Y-94128633D01*
X119780000Y-94128633D02*
X119780000Y-94295300D01*
X119780000Y-94295300D02*
X119746667Y-94361966D01*
X119746667Y-94361966D02*
X119713333Y-94395300D01*
X119713333Y-94395300D02*
X119646667Y-94428633D01*
X119646667Y-94428633D02*
X119446667Y-94428633D01*
X119446667Y-94428633D02*
X119380000Y-94395300D01*
X119380000Y-94395300D02*
X119346667Y-94361966D01*
X101273333Y-102158633D02*
X101040000Y-101825300D01*
X100873333Y-102158633D02*
X100873333Y-101458633D01*
X100873333Y-101458633D02*
X101140000Y-101458633D01*
X101140000Y-101458633D02*
X101206667Y-101491966D01*
X101206667Y-101491966D02*
X101240000Y-101525300D01*
X101240000Y-101525300D02*
X101273333Y-101591966D01*
X101273333Y-101591966D02*
X101273333Y-101691966D01*
X101273333Y-101691966D02*
X101240000Y-101758633D01*
X101240000Y-101758633D02*
X101206667Y-101791966D01*
X101206667Y-101791966D02*
X101140000Y-101825300D01*
X101140000Y-101825300D02*
X100873333Y-101825300D01*
X101540000Y-101525300D02*
X101573333Y-101491966D01*
X101573333Y-101491966D02*
X101640000Y-101458633D01*
X101640000Y-101458633D02*
X101806667Y-101458633D01*
X101806667Y-101458633D02*
X101873333Y-101491966D01*
X101873333Y-101491966D02*
X101906667Y-101525300D01*
X101906667Y-101525300D02*
X101940000Y-101591966D01*
X101940000Y-101591966D02*
X101940000Y-101658633D01*
X101940000Y-101658633D02*
X101906667Y-101758633D01*
X101906667Y-101758633D02*
X101506667Y-102158633D01*
X101506667Y-102158633D02*
X101940000Y-102158633D01*
X119593333Y-97281966D02*
X119560000Y-97315300D01*
X119560000Y-97315300D02*
X119460000Y-97348633D01*
X119460000Y-97348633D02*
X119393333Y-97348633D01*
X119393333Y-97348633D02*
X119293333Y-97315300D01*
X119293333Y-97315300D02*
X119226667Y-97248633D01*
X119226667Y-97248633D02*
X119193333Y-97181966D01*
X119193333Y-97181966D02*
X119160000Y-97048633D01*
X119160000Y-97048633D02*
X119160000Y-96948633D01*
X119160000Y-96948633D02*
X119193333Y-96815300D01*
X119193333Y-96815300D02*
X119226667Y-96748633D01*
X119226667Y-96748633D02*
X119293333Y-96681966D01*
X119293333Y-96681966D02*
X119393333Y-96648633D01*
X119393333Y-96648633D02*
X119460000Y-96648633D01*
X119460000Y-96648633D02*
X119560000Y-96681966D01*
X119560000Y-96681966D02*
X119593333Y-96715300D01*
X119860000Y-96715300D02*
X119893333Y-96681966D01*
X119893333Y-96681966D02*
X119960000Y-96648633D01*
X119960000Y-96648633D02*
X120126667Y-96648633D01*
X120126667Y-96648633D02*
X120193333Y-96681966D01*
X120193333Y-96681966D02*
X120226667Y-96715300D01*
X120226667Y-96715300D02*
X120260000Y-96781966D01*
X120260000Y-96781966D02*
X120260000Y-96848633D01*
X120260000Y-96848633D02*
X120226667Y-96948633D01*
X120226667Y-96948633D02*
X119826667Y-97348633D01*
X119826667Y-97348633D02*
X120260000Y-97348633D01*
X109566667Y-96095300D02*
X109566667Y-96428633D01*
X109333333Y-95728633D02*
X109566667Y-96095300D01*
X109566667Y-96095300D02*
X109800000Y-95728633D01*
X110000000Y-95795300D02*
X110033333Y-95761966D01*
X110033333Y-95761966D02*
X110100000Y-95728633D01*
X110100000Y-95728633D02*
X110266667Y-95728633D01*
X110266667Y-95728633D02*
X110333333Y-95761966D01*
X110333333Y-95761966D02*
X110366667Y-95795300D01*
X110366667Y-95795300D02*
X110400000Y-95861966D01*
X110400000Y-95861966D02*
X110400000Y-95928633D01*
X110400000Y-95928633D02*
X110366667Y-96028633D01*
X110366667Y-96028633D02*
X109966667Y-96428633D01*
X109966667Y-96428633D02*
X110400000Y-96428633D01*
X96569166Y-78873633D02*
X96569166Y-79440300D01*
X96569166Y-79440300D02*
X96602500Y-79506966D01*
X96602500Y-79506966D02*
X96635833Y-79540300D01*
X96635833Y-79540300D02*
X96702500Y-79573633D01*
X96702500Y-79573633D02*
X96835833Y-79573633D01*
X96835833Y-79573633D02*
X96902500Y-79540300D01*
X96902500Y-79540300D02*
X96935833Y-79506966D01*
X96935833Y-79506966D02*
X96969166Y-79440300D01*
X96969166Y-79440300D02*
X96969166Y-78873633D01*
X97669166Y-79573633D02*
X97269166Y-79573633D01*
X97469166Y-79573633D02*
X97469166Y-78873633D01*
X97469166Y-78873633D02*
X97402499Y-78973633D01*
X97402499Y-78973633D02*
X97335833Y-79040300D01*
X97335833Y-79040300D02*
X97269166Y-79073633D01*
X115053333Y-79861966D02*
X115020000Y-79895300D01*
X115020000Y-79895300D02*
X114920000Y-79928633D01*
X114920000Y-79928633D02*
X114853333Y-79928633D01*
X114853333Y-79928633D02*
X114753333Y-79895300D01*
X114753333Y-79895300D02*
X114686667Y-79828633D01*
X114686667Y-79828633D02*
X114653333Y-79761966D01*
X114653333Y-79761966D02*
X114620000Y-79628633D01*
X114620000Y-79628633D02*
X114620000Y-79528633D01*
X114620000Y-79528633D02*
X114653333Y-79395300D01*
X114653333Y-79395300D02*
X114686667Y-79328633D01*
X114686667Y-79328633D02*
X114753333Y-79261966D01*
X114753333Y-79261966D02*
X114853333Y-79228633D01*
X114853333Y-79228633D02*
X114920000Y-79228633D01*
X114920000Y-79228633D02*
X115020000Y-79261966D01*
X115020000Y-79261966D02*
X115053333Y-79295300D01*
X115686667Y-79228633D02*
X115353333Y-79228633D01*
X115353333Y-79228633D02*
X115320000Y-79561966D01*
X115320000Y-79561966D02*
X115353333Y-79528633D01*
X115353333Y-79528633D02*
X115420000Y-79495300D01*
X115420000Y-79495300D02*
X115586667Y-79495300D01*
X115586667Y-79495300D02*
X115653333Y-79528633D01*
X115653333Y-79528633D02*
X115686667Y-79561966D01*
X115686667Y-79561966D02*
X115720000Y-79628633D01*
X115720000Y-79628633D02*
X115720000Y-79795300D01*
X115720000Y-79795300D02*
X115686667Y-79861966D01*
X115686667Y-79861966D02*
X115653333Y-79895300D01*
X115653333Y-79895300D02*
X115586667Y-79928633D01*
X115586667Y-79928633D02*
X115420000Y-79928633D01*
X115420000Y-79928633D02*
X115353333Y-79895300D01*
X115353333Y-79895300D02*
X115320000Y-79861966D01*
X96166666Y-86598633D02*
X96166666Y-87165300D01*
X96166666Y-87165300D02*
X96200000Y-87231966D01*
X96200000Y-87231966D02*
X96233333Y-87265300D01*
X96233333Y-87265300D02*
X96300000Y-87298633D01*
X96300000Y-87298633D02*
X96433333Y-87298633D01*
X96433333Y-87298633D02*
X96500000Y-87265300D01*
X96500000Y-87265300D02*
X96533333Y-87231966D01*
X96533333Y-87231966D02*
X96566666Y-87165300D01*
X96566666Y-87165300D02*
X96566666Y-86598633D01*
X96866666Y-86665300D02*
X96899999Y-86631966D01*
X96899999Y-86631966D02*
X96966666Y-86598633D01*
X96966666Y-86598633D02*
X97133333Y-86598633D01*
X97133333Y-86598633D02*
X97199999Y-86631966D01*
X97199999Y-86631966D02*
X97233333Y-86665300D01*
X97233333Y-86665300D02*
X97266666Y-86731966D01*
X97266666Y-86731966D02*
X97266666Y-86798633D01*
X97266666Y-86798633D02*
X97233333Y-86898633D01*
X97233333Y-86898633D02*
X96833333Y-87298633D01*
X96833333Y-87298633D02*
X97266666Y-87298633D01*
X123393333Y-81328633D02*
X123393333Y-80628633D01*
X123393333Y-80628633D02*
X123560000Y-80628633D01*
X123560000Y-80628633D02*
X123660000Y-80661966D01*
X123660000Y-80661966D02*
X123726667Y-80728633D01*
X123726667Y-80728633D02*
X123760000Y-80795300D01*
X123760000Y-80795300D02*
X123793333Y-80928633D01*
X123793333Y-80928633D02*
X123793333Y-81028633D01*
X123793333Y-81028633D02*
X123760000Y-81161966D01*
X123760000Y-81161966D02*
X123726667Y-81228633D01*
X123726667Y-81228633D02*
X123660000Y-81295300D01*
X123660000Y-81295300D02*
X123560000Y-81328633D01*
X123560000Y-81328633D02*
X123393333Y-81328633D01*
X124060000Y-80695300D02*
X124093333Y-80661966D01*
X124093333Y-80661966D02*
X124160000Y-80628633D01*
X124160000Y-80628633D02*
X124326667Y-80628633D01*
X124326667Y-80628633D02*
X124393333Y-80661966D01*
X124393333Y-80661966D02*
X124426667Y-80695300D01*
X124426667Y-80695300D02*
X124460000Y-80761966D01*
X124460000Y-80761966D02*
X124460000Y-80828633D01*
X124460000Y-80828633D02*
X124426667Y-80928633D01*
X124426667Y-80928633D02*
X124026667Y-81328633D01*
X124026667Y-81328633D02*
X124460000Y-81328633D01*
X123333333Y-94311966D02*
X123300000Y-94345300D01*
X123300000Y-94345300D02*
X123200000Y-94378633D01*
X123200000Y-94378633D02*
X123133333Y-94378633D01*
X123133333Y-94378633D02*
X123033333Y-94345300D01*
X123033333Y-94345300D02*
X122966667Y-94278633D01*
X122966667Y-94278633D02*
X122933333Y-94211966D01*
X122933333Y-94211966D02*
X122900000Y-94078633D01*
X122900000Y-94078633D02*
X122900000Y-93978633D01*
X122900000Y-93978633D02*
X122933333Y-93845300D01*
X122933333Y-93845300D02*
X122966667Y-93778633D01*
X122966667Y-93778633D02*
X123033333Y-93711966D01*
X123033333Y-93711966D02*
X123133333Y-93678633D01*
X123133333Y-93678633D02*
X123200000Y-93678633D01*
X123200000Y-93678633D02*
X123300000Y-93711966D01*
X123300000Y-93711966D02*
X123333333Y-93745300D01*
X123933333Y-93911966D02*
X123933333Y-94378633D01*
X123766667Y-93645300D02*
X123600000Y-94145300D01*
X123600000Y-94145300D02*
X124033333Y-94145300D01*
X121856666Y-99698633D02*
X121856666Y-98998633D01*
X122589999Y-99631966D02*
X122556666Y-99665300D01*
X122556666Y-99665300D02*
X122456666Y-99698633D01*
X122456666Y-99698633D02*
X122389999Y-99698633D01*
X122389999Y-99698633D02*
X122289999Y-99665300D01*
X122289999Y-99665300D02*
X122223333Y-99598633D01*
X122223333Y-99598633D02*
X122189999Y-99531966D01*
X122189999Y-99531966D02*
X122156666Y-99398633D01*
X122156666Y-99398633D02*
X122156666Y-99298633D01*
X122156666Y-99298633D02*
X122189999Y-99165300D01*
X122189999Y-99165300D02*
X122223333Y-99098633D01*
X122223333Y-99098633D02*
X122289999Y-99031966D01*
X122289999Y-99031966D02*
X122389999Y-98998633D01*
X122389999Y-98998633D02*
X122456666Y-98998633D01*
X122456666Y-98998633D02*
X122556666Y-99031966D01*
X122556666Y-99031966D02*
X122589999Y-99065300D01*
X122856666Y-99665300D02*
X122956666Y-99698633D01*
X122956666Y-99698633D02*
X123123333Y-99698633D01*
X123123333Y-99698633D02*
X123189999Y-99665300D01*
X123189999Y-99665300D02*
X123223333Y-99631966D01*
X123223333Y-99631966D02*
X123256666Y-99565300D01*
X123256666Y-99565300D02*
X123256666Y-99498633D01*
X123256666Y-99498633D02*
X123223333Y-99431966D01*
X123223333Y-99431966D02*
X123189999Y-99398633D01*
X123189999Y-99398633D02*
X123123333Y-99365300D01*
X123123333Y-99365300D02*
X122989999Y-99331966D01*
X122989999Y-99331966D02*
X122923333Y-99298633D01*
X122923333Y-99298633D02*
X122889999Y-99265300D01*
X122889999Y-99265300D02*
X122856666Y-99198633D01*
X122856666Y-99198633D02*
X122856666Y-99131966D01*
X122856666Y-99131966D02*
X122889999Y-99065300D01*
X122889999Y-99065300D02*
X122923333Y-99031966D01*
X122923333Y-99031966D02*
X122989999Y-98998633D01*
X122989999Y-98998633D02*
X123156666Y-98998633D01*
X123156666Y-98998633D02*
X123256666Y-99031966D01*
X123556666Y-99698633D02*
X123556666Y-98998633D01*
X123556666Y-98998633D02*
X123823333Y-98998633D01*
X123823333Y-98998633D02*
X123890000Y-99031966D01*
X123890000Y-99031966D02*
X123923333Y-99065300D01*
X123923333Y-99065300D02*
X123956666Y-99131966D01*
X123956666Y-99131966D02*
X123956666Y-99231966D01*
X123956666Y-99231966D02*
X123923333Y-99298633D01*
X123923333Y-99298633D02*
X123890000Y-99331966D01*
X123890000Y-99331966D02*
X123823333Y-99365300D01*
X123823333Y-99365300D02*
X123556666Y-99365300D01*
X118943333Y-88278633D02*
X118710000Y-87945300D01*
X118543333Y-88278633D02*
X118543333Y-87578633D01*
X118543333Y-87578633D02*
X118810000Y-87578633D01*
X118810000Y-87578633D02*
X118876667Y-87611966D01*
X118876667Y-87611966D02*
X118910000Y-87645300D01*
X118910000Y-87645300D02*
X118943333Y-87711966D01*
X118943333Y-87711966D02*
X118943333Y-87811966D01*
X118943333Y-87811966D02*
X118910000Y-87878633D01*
X118910000Y-87878633D02*
X118876667Y-87911966D01*
X118876667Y-87911966D02*
X118810000Y-87945300D01*
X118810000Y-87945300D02*
X118543333Y-87945300D01*
X119543333Y-87811966D02*
X119543333Y-88278633D01*
X119376667Y-87545300D02*
X119210000Y-88045300D01*
X119210000Y-88045300D02*
X119643333Y-88045300D01*
X88560000Y-84166966D02*
X88660000Y-84200300D01*
X88660000Y-84200300D02*
X88693333Y-84233633D01*
X88693333Y-84233633D02*
X88726666Y-84300300D01*
X88726666Y-84300300D02*
X88726666Y-84400300D01*
X88726666Y-84400300D02*
X88693333Y-84466966D01*
X88693333Y-84466966D02*
X88660000Y-84500300D01*
X88660000Y-84500300D02*
X88593333Y-84533633D01*
X88593333Y-84533633D02*
X88326666Y-84533633D01*
X88326666Y-84533633D02*
X88326666Y-83833633D01*
X88326666Y-83833633D02*
X88560000Y-83833633D01*
X88560000Y-83833633D02*
X88626666Y-83866966D01*
X88626666Y-83866966D02*
X88660000Y-83900300D01*
X88660000Y-83900300D02*
X88693333Y-83966966D01*
X88693333Y-83966966D02*
X88693333Y-84033633D01*
X88693333Y-84033633D02*
X88660000Y-84100300D01*
X88660000Y-84100300D02*
X88626666Y-84133633D01*
X88626666Y-84133633D02*
X88560000Y-84166966D01*
X88560000Y-84166966D02*
X88326666Y-84166966D01*
X88926666Y-83833633D02*
X89326666Y-83833633D01*
X89126666Y-84533633D02*
X89126666Y-83833633D01*
X89926666Y-84533633D02*
X89526666Y-84533633D01*
X89726666Y-84533633D02*
X89726666Y-83833633D01*
X89726666Y-83833633D02*
X89659999Y-83933633D01*
X89659999Y-83933633D02*
X89593333Y-84000300D01*
X89593333Y-84000300D02*
X89526666Y-84033633D01*
X109673333Y-79841966D02*
X109640000Y-79875300D01*
X109640000Y-79875300D02*
X109540000Y-79908633D01*
X109540000Y-79908633D02*
X109473333Y-79908633D01*
X109473333Y-79908633D02*
X109373333Y-79875300D01*
X109373333Y-79875300D02*
X109306667Y-79808633D01*
X109306667Y-79808633D02*
X109273333Y-79741966D01*
X109273333Y-79741966D02*
X109240000Y-79608633D01*
X109240000Y-79608633D02*
X109240000Y-79508633D01*
X109240000Y-79508633D02*
X109273333Y-79375300D01*
X109273333Y-79375300D02*
X109306667Y-79308633D01*
X109306667Y-79308633D02*
X109373333Y-79241966D01*
X109373333Y-79241966D02*
X109473333Y-79208633D01*
X109473333Y-79208633D02*
X109540000Y-79208633D01*
X109540000Y-79208633D02*
X109640000Y-79241966D01*
X109640000Y-79241966D02*
X109673333Y-79275300D01*
X109906667Y-79208633D02*
X110340000Y-79208633D01*
X110340000Y-79208633D02*
X110106667Y-79475300D01*
X110106667Y-79475300D02*
X110206667Y-79475300D01*
X110206667Y-79475300D02*
X110273333Y-79508633D01*
X110273333Y-79508633D02*
X110306667Y-79541966D01*
X110306667Y-79541966D02*
X110340000Y-79608633D01*
X110340000Y-79608633D02*
X110340000Y-79775300D01*
X110340000Y-79775300D02*
X110306667Y-79841966D01*
X110306667Y-79841966D02*
X110273333Y-79875300D01*
X110273333Y-79875300D02*
X110206667Y-79908633D01*
X110206667Y-79908633D02*
X110006667Y-79908633D01*
X110006667Y-79908633D02*
X109940000Y-79875300D01*
X109940000Y-79875300D02*
X109906667Y-79841966D01*
X119053333Y-84838633D02*
X118820000Y-84505300D01*
X118653333Y-84838633D02*
X118653333Y-84138633D01*
X118653333Y-84138633D02*
X118920000Y-84138633D01*
X118920000Y-84138633D02*
X118986667Y-84171966D01*
X118986667Y-84171966D02*
X119020000Y-84205300D01*
X119020000Y-84205300D02*
X119053333Y-84271966D01*
X119053333Y-84271966D02*
X119053333Y-84371966D01*
X119053333Y-84371966D02*
X119020000Y-84438633D01*
X119020000Y-84438633D02*
X118986667Y-84471966D01*
X118986667Y-84471966D02*
X118920000Y-84505300D01*
X118920000Y-84505300D02*
X118653333Y-84505300D01*
X119286667Y-84138633D02*
X119753333Y-84138633D01*
X119753333Y-84138633D02*
X119453333Y-84838633D01*
X92833333Y-102188633D02*
X92600000Y-101855300D01*
X92433333Y-102188633D02*
X92433333Y-101488633D01*
X92433333Y-101488633D02*
X92700000Y-101488633D01*
X92700000Y-101488633D02*
X92766667Y-101521966D01*
X92766667Y-101521966D02*
X92800000Y-101555300D01*
X92800000Y-101555300D02*
X92833333Y-101621966D01*
X92833333Y-101621966D02*
X92833333Y-101721966D01*
X92833333Y-101721966D02*
X92800000Y-101788633D01*
X92800000Y-101788633D02*
X92766667Y-101821966D01*
X92766667Y-101821966D02*
X92700000Y-101855300D01*
X92700000Y-101855300D02*
X92433333Y-101855300D01*
X93500000Y-102188633D02*
X93100000Y-102188633D01*
X93300000Y-102188633D02*
X93300000Y-101488633D01*
X93300000Y-101488633D02*
X93233333Y-101588633D01*
X93233333Y-101588633D02*
X93166667Y-101655300D01*
X93166667Y-101655300D02*
X93100000Y-101688633D01*
X125843334Y-94405300D02*
X125943334Y-94438633D01*
X125943334Y-94438633D02*
X126110001Y-94438633D01*
X126110001Y-94438633D02*
X126176667Y-94405300D01*
X126176667Y-94405300D02*
X126210001Y-94371966D01*
X126210001Y-94371966D02*
X126243334Y-94305300D01*
X126243334Y-94305300D02*
X126243334Y-94238633D01*
X126243334Y-94238633D02*
X126210001Y-94171966D01*
X126210001Y-94171966D02*
X126176667Y-94138633D01*
X126176667Y-94138633D02*
X126110001Y-94105300D01*
X126110001Y-94105300D02*
X125976667Y-94071966D01*
X125976667Y-94071966D02*
X125910001Y-94038633D01*
X125910001Y-94038633D02*
X125876667Y-94005300D01*
X125876667Y-94005300D02*
X125843334Y-93938633D01*
X125843334Y-93938633D02*
X125843334Y-93871966D01*
X125843334Y-93871966D02*
X125876667Y-93805300D01*
X125876667Y-93805300D02*
X125910001Y-93771966D01*
X125910001Y-93771966D02*
X125976667Y-93738633D01*
X125976667Y-93738633D02*
X126143334Y-93738633D01*
X126143334Y-93738633D02*
X126243334Y-93771966D01*
X126810001Y-94405300D02*
X126743334Y-94438633D01*
X126743334Y-94438633D02*
X126610001Y-94438633D01*
X126610001Y-94438633D02*
X126543334Y-94405300D01*
X126543334Y-94405300D02*
X126510001Y-94338633D01*
X126510001Y-94338633D02*
X126510001Y-94071966D01*
X126510001Y-94071966D02*
X126543334Y-94005300D01*
X126543334Y-94005300D02*
X126610001Y-93971966D01*
X126610001Y-93971966D02*
X126743334Y-93971966D01*
X126743334Y-93971966D02*
X126810001Y-94005300D01*
X126810001Y-94005300D02*
X126843334Y-94071966D01*
X126843334Y-94071966D02*
X126843334Y-94138633D01*
X126843334Y-94138633D02*
X126510001Y-94205300D01*
X127143334Y-94438633D02*
X127143334Y-93971966D01*
X127143334Y-94105300D02*
X127176668Y-94038633D01*
X127176668Y-94038633D02*
X127210001Y-94005300D01*
X127210001Y-94005300D02*
X127276668Y-93971966D01*
X127276668Y-93971966D02*
X127343334Y-93971966D01*
X127576667Y-94438633D02*
X127576667Y-93971966D01*
X127576667Y-93738633D02*
X127543334Y-93771966D01*
X127543334Y-93771966D02*
X127576667Y-93805300D01*
X127576667Y-93805300D02*
X127610001Y-93771966D01*
X127610001Y-93771966D02*
X127576667Y-93738633D01*
X127576667Y-93738633D02*
X127576667Y-93805300D01*
X128210000Y-94438633D02*
X128210000Y-94071966D01*
X128210000Y-94071966D02*
X128176667Y-94005300D01*
X128176667Y-94005300D02*
X128110000Y-93971966D01*
X128110000Y-93971966D02*
X127976667Y-93971966D01*
X127976667Y-93971966D02*
X127910000Y-94005300D01*
X128210000Y-94405300D02*
X128143334Y-94438633D01*
X128143334Y-94438633D02*
X127976667Y-94438633D01*
X127976667Y-94438633D02*
X127910000Y-94405300D01*
X127910000Y-94405300D02*
X127876667Y-94338633D01*
X127876667Y-94338633D02*
X127876667Y-94271966D01*
X127876667Y-94271966D02*
X127910000Y-94205300D01*
X127910000Y-94205300D02*
X127976667Y-94171966D01*
X127976667Y-94171966D02*
X128143334Y-94171966D01*
X128143334Y-94171966D02*
X128210000Y-94138633D01*
X128643333Y-94438633D02*
X128576667Y-94405300D01*
X128576667Y-94405300D02*
X128543333Y-94338633D01*
X128543333Y-94338633D02*
X128543333Y-93738633D01*
X128910000Y-93738633D02*
X128910000Y-94305300D01*
X128910000Y-94305300D02*
X128943334Y-94371966D01*
X128943334Y-94371966D02*
X128976667Y-94405300D01*
X128976667Y-94405300D02*
X129043334Y-94438633D01*
X129043334Y-94438633D02*
X129176667Y-94438633D01*
X129176667Y-94438633D02*
X129243334Y-94405300D01*
X129243334Y-94405300D02*
X129276667Y-94371966D01*
X129276667Y-94371966D02*
X129310000Y-94305300D01*
X129310000Y-94305300D02*
X129310000Y-93738633D01*
X129610000Y-94238633D02*
X129943333Y-94238633D01*
X129543333Y-94438633D02*
X129776667Y-93738633D01*
X129776667Y-93738633D02*
X130010000Y-94438633D01*
X130643333Y-94438633D02*
X130410000Y-94105300D01*
X130243333Y-94438633D02*
X130243333Y-93738633D01*
X130243333Y-93738633D02*
X130510000Y-93738633D01*
X130510000Y-93738633D02*
X130576667Y-93771966D01*
X130576667Y-93771966D02*
X130610000Y-93805300D01*
X130610000Y-93805300D02*
X130643333Y-93871966D01*
X130643333Y-93871966D02*
X130643333Y-93971966D01*
X130643333Y-93971966D02*
X130610000Y-94038633D01*
X130610000Y-94038633D02*
X130576667Y-94071966D01*
X130576667Y-94071966D02*
X130510000Y-94105300D01*
X130510000Y-94105300D02*
X130243333Y-94105300D01*
X130843333Y-93738633D02*
X131243333Y-93738633D01*
X131043333Y-94438633D02*
X131043333Y-93738633D01*
X104633333Y-79891966D02*
X104600000Y-79925300D01*
X104600000Y-79925300D02*
X104500000Y-79958633D01*
X104500000Y-79958633D02*
X104433333Y-79958633D01*
X104433333Y-79958633D02*
X104333333Y-79925300D01*
X104333333Y-79925300D02*
X104266667Y-79858633D01*
X104266667Y-79858633D02*
X104233333Y-79791966D01*
X104233333Y-79791966D02*
X104200000Y-79658633D01*
X104200000Y-79658633D02*
X104200000Y-79558633D01*
X104200000Y-79558633D02*
X104233333Y-79425300D01*
X104233333Y-79425300D02*
X104266667Y-79358633D01*
X104266667Y-79358633D02*
X104333333Y-79291966D01*
X104333333Y-79291966D02*
X104433333Y-79258633D01*
X104433333Y-79258633D02*
X104500000Y-79258633D01*
X104500000Y-79258633D02*
X104600000Y-79291966D01*
X104600000Y-79291966D02*
X104633333Y-79325300D01*
X105300000Y-79958633D02*
X104900000Y-79958633D01*
X105100000Y-79958633D02*
X105100000Y-79258633D01*
X105100000Y-79258633D02*
X105033333Y-79358633D01*
X105033333Y-79358633D02*
X104966667Y-79425300D01*
X104966667Y-79425300D02*
X104900000Y-79458633D01*
X91810000Y-103781966D02*
X91743333Y-103748633D01*
X91743333Y-103748633D02*
X91643333Y-103748633D01*
X91643333Y-103748633D02*
X91543333Y-103781966D01*
X91543333Y-103781966D02*
X91476667Y-103848633D01*
X91476667Y-103848633D02*
X91443333Y-103915300D01*
X91443333Y-103915300D02*
X91410000Y-104048633D01*
X91410000Y-104048633D02*
X91410000Y-104148633D01*
X91410000Y-104148633D02*
X91443333Y-104281966D01*
X91443333Y-104281966D02*
X91476667Y-104348633D01*
X91476667Y-104348633D02*
X91543333Y-104415300D01*
X91543333Y-104415300D02*
X91643333Y-104448633D01*
X91643333Y-104448633D02*
X91710000Y-104448633D01*
X91710000Y-104448633D02*
X91810000Y-104415300D01*
X91810000Y-104415300D02*
X91843333Y-104381966D01*
X91843333Y-104381966D02*
X91843333Y-104148633D01*
X91843333Y-104148633D02*
X91710000Y-104148633D01*
X92143333Y-104448633D02*
X92143333Y-103748633D01*
X92143333Y-103748633D02*
X92410000Y-103748633D01*
X92410000Y-103748633D02*
X92476667Y-103781966D01*
X92476667Y-103781966D02*
X92510000Y-103815300D01*
X92510000Y-103815300D02*
X92543333Y-103881966D01*
X92543333Y-103881966D02*
X92543333Y-103981966D01*
X92543333Y-103981966D02*
X92510000Y-104048633D01*
X92510000Y-104048633D02*
X92476667Y-104081966D01*
X92476667Y-104081966D02*
X92410000Y-104115300D01*
X92410000Y-104115300D02*
X92143333Y-104115300D01*
X92843333Y-104448633D02*
X92843333Y-103748633D01*
X93310000Y-103748633D02*
X93443333Y-103748633D01*
X93443333Y-103748633D02*
X93510000Y-103781966D01*
X93510000Y-103781966D02*
X93576666Y-103848633D01*
X93576666Y-103848633D02*
X93610000Y-103981966D01*
X93610000Y-103981966D02*
X93610000Y-104215300D01*
X93610000Y-104215300D02*
X93576666Y-104348633D01*
X93576666Y-104348633D02*
X93510000Y-104415300D01*
X93510000Y-104415300D02*
X93443333Y-104448633D01*
X93443333Y-104448633D02*
X93310000Y-104448633D01*
X93310000Y-104448633D02*
X93243333Y-104415300D01*
X93243333Y-104415300D02*
X93176666Y-104348633D01*
X93176666Y-104348633D02*
X93143333Y-104215300D01*
X93143333Y-104215300D02*
X93143333Y-103981966D01*
X93143333Y-103981966D02*
X93176666Y-103848633D01*
X93176666Y-103848633D02*
X93243333Y-103781966D01*
X93243333Y-103781966D02*
X93310000Y-103748633D01*
X96551666Y-93913633D02*
X96551666Y-94480300D01*
X96551666Y-94480300D02*
X96585000Y-94546966D01*
X96585000Y-94546966D02*
X96618333Y-94580300D01*
X96618333Y-94580300D02*
X96685000Y-94613633D01*
X96685000Y-94613633D02*
X96818333Y-94613633D01*
X96818333Y-94613633D02*
X96885000Y-94580300D01*
X96885000Y-94580300D02*
X96918333Y-94546966D01*
X96918333Y-94546966D02*
X96951666Y-94480300D01*
X96951666Y-94480300D02*
X96951666Y-93913633D01*
X97584999Y-94146966D02*
X97584999Y-94613633D01*
X97418333Y-93880300D02*
X97251666Y-94380300D01*
X97251666Y-94380300D02*
X97684999Y-94380300D01*
X123093333Y-88498633D02*
X122860000Y-88165300D01*
X122693333Y-88498633D02*
X122693333Y-87798633D01*
X122693333Y-87798633D02*
X122960000Y-87798633D01*
X122960000Y-87798633D02*
X123026667Y-87831966D01*
X123026667Y-87831966D02*
X123060000Y-87865300D01*
X123060000Y-87865300D02*
X123093333Y-87931966D01*
X123093333Y-87931966D02*
X123093333Y-88031966D01*
X123093333Y-88031966D02*
X123060000Y-88098633D01*
X123060000Y-88098633D02*
X123026667Y-88131966D01*
X123026667Y-88131966D02*
X122960000Y-88165300D01*
X122960000Y-88165300D02*
X122693333Y-88165300D01*
X123693333Y-87798633D02*
X123560000Y-87798633D01*
X123560000Y-87798633D02*
X123493333Y-87831966D01*
X123493333Y-87831966D02*
X123460000Y-87865300D01*
X123460000Y-87865300D02*
X123393333Y-87965300D01*
X123393333Y-87965300D02*
X123360000Y-88098633D01*
X123360000Y-88098633D02*
X123360000Y-88365300D01*
X123360000Y-88365300D02*
X123393333Y-88431966D01*
X123393333Y-88431966D02*
X123426667Y-88465300D01*
X123426667Y-88465300D02*
X123493333Y-88498633D01*
X123493333Y-88498633D02*
X123626667Y-88498633D01*
X123626667Y-88498633D02*
X123693333Y-88465300D01*
X123693333Y-88465300D02*
X123726667Y-88431966D01*
X123726667Y-88431966D02*
X123760000Y-88365300D01*
X123760000Y-88365300D02*
X123760000Y-88198633D01*
X123760000Y-88198633D02*
X123726667Y-88131966D01*
X123726667Y-88131966D02*
X123693333Y-88098633D01*
X123693333Y-88098633D02*
X123626667Y-88065300D01*
X123626667Y-88065300D02*
X123493333Y-88065300D01*
X123493333Y-88065300D02*
X123426667Y-88098633D01*
X123426667Y-88098633D02*
X123393333Y-88131966D01*
X123393333Y-88131966D02*
X123360000Y-88198633D01*
X128006666Y-84378633D02*
X128006666Y-83678633D01*
X128306666Y-83745300D02*
X128339999Y-83711966D01*
X128339999Y-83711966D02*
X128406666Y-83678633D01*
X128406666Y-83678633D02*
X128573333Y-83678633D01*
X128573333Y-83678633D02*
X128639999Y-83711966D01*
X128639999Y-83711966D02*
X128673333Y-83745300D01*
X128673333Y-83745300D02*
X128706666Y-83811966D01*
X128706666Y-83811966D02*
X128706666Y-83878633D01*
X128706666Y-83878633D02*
X128673333Y-83978633D01*
X128673333Y-83978633D02*
X128273333Y-84378633D01*
X128273333Y-84378633D02*
X128706666Y-84378633D01*
X129406666Y-84311966D02*
X129373333Y-84345300D01*
X129373333Y-84345300D02*
X129273333Y-84378633D01*
X129273333Y-84378633D02*
X129206666Y-84378633D01*
X129206666Y-84378633D02*
X129106666Y-84345300D01*
X129106666Y-84345300D02*
X129040000Y-84278633D01*
X129040000Y-84278633D02*
X129006666Y-84211966D01*
X129006666Y-84211966D02*
X128973333Y-84078633D01*
X128973333Y-84078633D02*
X128973333Y-83978633D01*
X128973333Y-83978633D02*
X129006666Y-83845300D01*
X129006666Y-83845300D02*
X129040000Y-83778633D01*
X129040000Y-83778633D02*
X129106666Y-83711966D01*
X129106666Y-83711966D02*
X129206666Y-83678633D01*
X129206666Y-83678633D02*
X129273333Y-83678633D01*
X129273333Y-83678633D02*
X129373333Y-83711966D01*
X129373333Y-83711966D02*
X129406666Y-83745300D01*
X109256666Y-83038633D02*
X109256666Y-83605300D01*
X109256666Y-83605300D02*
X109290000Y-83671966D01*
X109290000Y-83671966D02*
X109323333Y-83705300D01*
X109323333Y-83705300D02*
X109390000Y-83738633D01*
X109390000Y-83738633D02*
X109523333Y-83738633D01*
X109523333Y-83738633D02*
X109590000Y-83705300D01*
X109590000Y-83705300D02*
X109623333Y-83671966D01*
X109623333Y-83671966D02*
X109656666Y-83605300D01*
X109656666Y-83605300D02*
X109656666Y-83038633D01*
X109923333Y-83038633D02*
X110356666Y-83038633D01*
X110356666Y-83038633D02*
X110123333Y-83305300D01*
X110123333Y-83305300D02*
X110223333Y-83305300D01*
X110223333Y-83305300D02*
X110289999Y-83338633D01*
X110289999Y-83338633D02*
X110323333Y-83371966D01*
X110323333Y-83371966D02*
X110356666Y-83438633D01*
X110356666Y-83438633D02*
X110356666Y-83605300D01*
X110356666Y-83605300D02*
X110323333Y-83671966D01*
X110323333Y-83671966D02*
X110289999Y-83705300D01*
X110289999Y-83705300D02*
X110223333Y-83738633D01*
X110223333Y-83738633D02*
X110023333Y-83738633D01*
X110023333Y-83738633D02*
X109956666Y-83705300D01*
X109956666Y-83705300D02*
X109923333Y-83671966D01*
%TO.C,R5*%
D11*
X122642936Y-85435000D02*
X123097064Y-85435000D01*
X122642936Y-86905000D02*
X123097064Y-86905000D01*
%TO.C,Y1*%
X87720000Y-94280000D02*
X87720000Y-101650000D01*
X87720000Y-101650000D02*
X91440000Y-101650000D01*
X91440000Y-101650000D02*
X91440000Y-94280000D01*
%TO.C,D1*%
X117942500Y-81700000D02*
X117942500Y-83620000D01*
X117942500Y-83620000D02*
X120627500Y-83620000D01*
X120627500Y-81700000D02*
X117942500Y-81700000D01*
%TO.C,R3*%
X119377064Y-91655000D02*
X118922936Y-91655000D01*
X119377064Y-93125000D02*
X118922936Y-93125000D01*
%TO.C,R2*%
X98852936Y-101135000D02*
X99307064Y-101135000D01*
X98852936Y-102605000D02*
X99307064Y-102605000D01*
%TO.C,C2*%
X122038748Y-95875000D02*
X122561252Y-95875000D01*
X122038748Y-97345000D02*
X122561252Y-97345000D01*
%TO.C,Y2*%
X105290000Y-97050000D02*
X105290000Y-100770000D01*
X105290000Y-100770000D02*
X112660000Y-100770000D01*
X112660000Y-97050000D02*
X105290000Y-97050000D01*
%TO.C,U1*%
X94342500Y-80095000D02*
X99862500Y-80095000D01*
X94342500Y-80365000D02*
X94342500Y-80095000D01*
X94342500Y-85615000D02*
X94342500Y-85345000D01*
X99862500Y-80095000D02*
X99862500Y-80365000D01*
X99862500Y-85345000D02*
X99862500Y-85615000D01*
X99862500Y-85615000D02*
X94342500Y-85615000D01*
X93512500Y-80355000D02*
X93172500Y-79885000D01*
X93852500Y-79885000D01*
X93512500Y-80355000D01*
G36*
X93512500Y-80355000D02*
G01*
X93172500Y-79885000D01*
X93852500Y-79885000D01*
X93512500Y-80355000D01*
G37*
%TO.C,C5*%
X114908748Y-80555000D02*
X115431252Y-80555000D01*
X114908748Y-82025000D02*
X115431252Y-82025000D01*
%TO.C,U2*%
X93940000Y-87820000D02*
X99460000Y-87820000D01*
X93940000Y-88090000D02*
X93940000Y-87820000D01*
X93940000Y-93340000D02*
X93940000Y-93070000D01*
X99460000Y-87820000D02*
X99460000Y-88090000D01*
X99460000Y-93070000D02*
X99460000Y-93340000D01*
X99460000Y-93340000D02*
X93940000Y-93340000D01*
X93110000Y-88080000D02*
X92770000Y-87610000D01*
X93450000Y-87610000D01*
X93110000Y-88080000D01*
G36*
X93110000Y-88080000D02*
G01*
X92770000Y-87610000D01*
X93450000Y-87610000D01*
X93110000Y-88080000D01*
G37*
%TO.C,D2*%
X122777500Y-83630000D02*
X125462500Y-83630000D01*
X125462500Y-81710000D02*
X122777500Y-81710000D01*
X125462500Y-83630000D02*
X125462500Y-81710000D01*
%TO.C,C4*%
X123028748Y-91605000D02*
X123551252Y-91605000D01*
X123028748Y-93075000D02*
X123551252Y-93075000D01*
%TO.C,ICSP*%
X118290000Y-107870000D02*
X118290000Y-100030000D01*
X120940000Y-105220000D02*
X120940000Y-107870000D01*
X120940000Y-107870000D02*
X118290000Y-107870000D01*
X123590000Y-100030000D02*
X118290000Y-100030000D01*
X123590000Y-105220000D02*
X120940000Y-105220000D01*
X123590000Y-105220000D02*
X123590000Y-100030000D01*
X123590000Y-106490000D02*
X123590000Y-107870000D01*
X123590000Y-107870000D02*
X122210000Y-107870000D01*
%TO.C,R4*%
X119277064Y-89075000D02*
X118822936Y-89075000D01*
X119277064Y-90545000D02*
X118822936Y-90545000D01*
%TO.C,BT1*%
X87730000Y-85215000D02*
X89110000Y-85215000D01*
X87730000Y-86595000D02*
X87730000Y-85215000D01*
X87730000Y-87865000D02*
X87730000Y-90515000D01*
X87730000Y-87865000D02*
X90490000Y-87865000D01*
X87730000Y-90515000D02*
X90490000Y-90515000D01*
X90490000Y-87865000D02*
X90490000Y-90515000D01*
%TO.C,C3*%
X109528748Y-80535000D02*
X110051252Y-80535000D01*
X109528748Y-82005000D02*
X110051252Y-82005000D01*
%TO.C,R7*%
X118942936Y-85435000D02*
X119397064Y-85435000D01*
X118942936Y-86905000D02*
X119397064Y-86905000D01*
%TO.C,R1*%
X95497064Y-101105000D02*
X95042936Y-101105000D01*
X95497064Y-102575000D02*
X95042936Y-102575000D01*
%TO.C,SerialUART*%
X127560000Y-95130000D02*
X128670000Y-95130000D01*
X127560000Y-96240000D02*
X127560000Y-95130000D01*
X127560000Y-97240000D02*
X127560000Y-103350000D01*
X127560000Y-97240000D02*
X129780000Y-97240000D01*
X127560000Y-103350000D02*
X129780000Y-103350000D01*
X129780000Y-97240000D02*
X129780000Y-103350000D01*
%TO.C,C1*%
X104488748Y-80585000D02*
X105011252Y-80585000D01*
X104488748Y-82055000D02*
X105011252Y-82055000D01*
%TO.C,GPIO*%
X92920000Y-107800000D02*
X92920000Y-106420000D01*
X94300000Y-107800000D02*
X92920000Y-107800000D01*
X95570000Y-105040000D02*
X116000000Y-105040000D01*
X95570000Y-107800000D02*
X95570000Y-105040000D01*
X95570000Y-107800000D02*
X116000000Y-107800000D01*
X116000000Y-107800000D02*
X116000000Y-105040000D01*
%TO.C,U4*%
D12*
X95210000Y-95130000D02*
X99210000Y-95130000D01*
X95210000Y-100170000D02*
X99210000Y-100170000D01*
D13*
X92865000Y-95155000D02*
G75*
G02*
X92665000Y-95155000I-100000J0D01*
G01*
X92665000Y-95155000D02*
G75*
G02*
X92865000Y-95155000I100000J0D01*
G01*
%TO.C,R6*%
D11*
X122982936Y-89095000D02*
X123437064Y-89095000D01*
X122982936Y-90565000D02*
X123437064Y-90565000D01*
%TO.C,I2C*%
X127580000Y-85060000D02*
X128690000Y-85060000D01*
X127580000Y-86170000D02*
X127580000Y-85060000D01*
X127580000Y-87170000D02*
X127580000Y-93280000D01*
X127580000Y-87170000D02*
X129800000Y-87170000D01*
X127580000Y-93280000D02*
X129800000Y-93280000D01*
X129800000Y-87170000D02*
X129800000Y-93280000D01*
%TO.C,U3*%
D12*
X106290000Y-85910000D02*
X106290000Y-86015000D01*
X106290000Y-85910000D02*
X106395000Y-85910000D01*
X106290000Y-92910000D02*
X106290000Y-92805000D01*
X106290000Y-92910000D02*
X106395000Y-92910000D01*
X113290000Y-85910000D02*
X113185000Y-85910000D01*
X113290000Y-85910000D02*
X113290000Y-86015000D01*
X113290000Y-92910000D02*
X113185000Y-92910000D01*
X113290000Y-92910000D02*
X113290000Y-92805000D01*
D13*
X104050000Y-86610000D02*
G75*
G02*
X103850000Y-86610000I-100000J0D01*
G01*
X103850000Y-86610000D02*
G75*
G02*
X104050000Y-86610000I100000J0D01*
G01*
%TD*%
M02*
